<?xml version="1.0" encoding="UTF-8" standalone="no"?>
<svg
   xmlns:dc="http://purl.org/dc/elements/1.1/"
   xmlns:cc="http://creativecommons.org/ns#"
   xmlns:rdf="http://www.w3.org/1999/02/22-rdf-syntax-ns#"
   xmlns:svg="http://www.w3.org/2000/svg"
   xmlns="http://www.w3.org/2000/svg"
   xmlns:sodipodi="http://sodipodi.sourceforge.net/DTD/sodipodi-0.dtd"
   xmlns:inkscape="http://www.inkscape.org/namespaces/inkscape"
   width="2160"
   height="2160"
   viewBox="0 0 2160 2160"
   version="1.1"
   id="svg4576"
   sodipodi:docname="penrose2.svg"
   inkscape:version="0.92.4 5da689c313, 2019-01-14">
  <metadata
     id="metadata4582">
    <rdf:RDF>
      <cc:Work
         rdf:about="">
        <dc:format>image/svg+xml</dc:format>
        <dc:type
           rdf:resource="http://purl.org/dc/dcmitype/StillImage" />
        <dc:title></dc:title>
      </cc:Work>
    </rdf:RDF>
  </metadata>
  <defs
     id="defs4580" />
  <sodipodi:namedview
     pagecolor="#ffffff"
     bordercolor="#666666"
     borderopacity="1"
     objecttolerance="10"
     gridtolerance="10"
     guidetolerance="10"
     inkscape:pageopacity="0"
     inkscape:pageshadow="2"
     inkscape:window-width="1920"
     inkscape:window-height="1016"
     id="namedview4578"
     showgrid="false"
     inkscape:zoom="0.1355288"
     inkscape:cx="1533.2769"
     inkscape:cy="864.85805"
     inkscape:window-x="0"
     inkscape:window-y="27"
     inkscape:window-maximized="1"
     inkscape:current-layer="svg4576" />
  <g
     stroke="rgb(0, 0, 0)"
     stroke-width="1"
     stroke-linecap="round"
     stroke-linejoin="round"
     fill="transparent"
     id="g4574"
     style="fill:none;stroke:#ffffff;stroke-opacity:1;fill-opacity:1">
    <path
       d="M1080,1080 L1167,1143 L1200,1246 L1113,1182 Z M1080,1080 L1113,977 L1200,913 L1167,1016 Z M972,1080 L884,1016 L851,913 L938,977 Z M972,1080 L938,1182 L972,1285 L1005,1182 Z M972,1080 L938,1182 L851,1246 L884,1143 Z M972,1080 L1005,977 L972,874 L938,977 Z M1200,1246 L1308,1246 L1396,1182 L1288,1182 Z M1080,1285 L972,1285 L1059,1348 L1167,1348 Z M1200,913 L1308,913 L1396,977 L1288,977 Z M1080,874 L972,874 L1059,811 L1167,811 Z M1167,1348 L1254,1412 L1288,1515 L1200,1451 Z M1167,1348 L1059,1348 L972,1412 L1080,1412 Z M1167,1348 L1275,1348 L1362,1412 L1254,1412 Z M1362,1080 L1396,977 L1429,1080 L1396,1182 Z M1167,811 L1200,708 L1288,644 L1254,747 Z M1167,811 L1059,811 L972,747 L1080,747 Z M1167,811 L1275,811 L1362,747 L1254,747 Z M851,913 L743,913 L655,977 L763,977 Z M851,1246 L743,1246 L655,1182 L763,1182 Z M1396,1309 L1362,1412 L1450,1348 L1483,1246 Z M884,1348 L851,1451 L763,1515 L797,1412 Z M884,1348 L776,1348 L689,1412 L797,1412 Z M1396,850 L1483,913 L1450,811 L1362,747 Z M884,811 L797,747 L763,644 L851,708 Z M884,811 L776,811 L689,747 L797,747 Z M689,1080 L655,1182 L622,1080 L655,977 Z M1483,1246 L1450,1348 L1483,1451 L1516,1348 Z M1483,1246 L1516,1143 L1604,1080 L1570,1182 Z M1483,1246 L1591,1246 L1678,1182 L1570,1182 Z M1288,1515 L1254,1617 L1167,1681 L1200,1578 Z M972,1412 L938,1515 L972,1617 L1005,1515 Z M1483,913 L1570,977 L1604,1080 L1516,1016 Z M1483,913 L1516,811 L1483,708 L1450,811 Z M1483,913 L1591,913 L1678,977 L1570,977 Z M1288,644 L1200,581 L1167,478 L1254,542 Z M972,747 L1005,644 L971,542 L938,644 Z M655,850 L689,747 L601,811 L568,913 Z M655,1309 L568,1246 L601,1348 L689,1412 Z M1080,1617 L972,1617 L1059,1681 L1167,1681 Z M1254,1617 L1362,1617 L1275,1681 L1167,1681 Z M763,1515 L851,1578 L884,1681 L797,1617 Z M1254,542 L1362,542 L1275,478 L1167,478 Z M1080,542 L971,542 L1059,478 L1167,478 Z M763,644 L797,542 L884,478 L851,581 Z M568,913 L535,1016 L447,1080 L481,977 Z M568,913 L601,811 L568,708 L535,811 Z M568,913 L460,913 L373,977 L481,977 Z M568,1246 L481,1182 L447,1080 L535,1143 Z M568,1246 L535,1348 L568,1451 L601,1348 Z M568,1246 L460,1246 L373,1182 L481,1182 Z M1483,1451 L1591,1451 L1678,1515 L1570,1515 Z M1678,1182 L1766,1246 L1799,1348 L1712,1285 Z M1167,1681 L1059,1681 L972,1744 L1080,1744 Z M1362,1617 L1450,1681 L1483,1784 L1396,1720 Z M1483,1578 L1450,1681 L1483,1784 L1516,1681 Z M1483,1578 L1591,1578 L1678,1515 L1570,1515 Z M797,1617 L689,1617 L776,1681 L884,1681 Z M1483,708 L1591,708 L1678,644 L1570,644 Z M1678,977 L1712,874 L1799,811 L1766,913 Z M1167,478 L1059,478 L971,415 L1080,415 Z M1362,542 L1396,439 L1483,375 L1450,478 Z M1483,581 L1516,478 L1483,375 L1450,478 Z M1483,581 L1591,581 L1678,644 L1570,644 Z M797,542 L689,542 L776,478 L884,478 Z M1712,1412 L1678,1515 L1766,1451 L1799,1348 Z M1712,1080 L1820,1080 L1907,1016 L1799,1016 Z M1712,1080 L1820,1080 L1907,1143 L1799,1143 Z M1200,1784 L1167,1886 L1080,1950 L1113,1847 Z M1200,1784 L1308,1784 L1396,1847 L1288,1847 Z M689,1617 L655,1720 L568,1784 L601,1681 Z M568,1578 L535,1681 L568,1784 L601,1681 Z M568,1578 L460,1578 L373,1515 L481,1515 Z M568,1451 L460,1451 L373,1515 L481,1515 Z M1712,747 L1799,811 L1766,708 L1678,644 Z M1200,375 L1113,312 L1079,209 L1167,273 Z M1200,375 L1308,375 L1396,312 L1288,312 Z M689,542 L601,478 L568,375 L655,439 Z M568,708 L460,708 L373,644 L481,644 Z M568,581 L601,478 L568,375 L535,478 Z M568,581 L460,581 L373,644 L481,644 Z M373,977 L285,913 L252,811 L339,874 Z M373,1182 L339,1285 L252,1348 L285,1246 Z M1678,1515 L1786,1515 L1874,1451 L1766,1451 Z M1874,1246 L1907,1143 L1940,1246 L1907,1348 Z M972,1744 L938,1847 L972,1950 L1005,1847 Z M851,1784 L938,1847 L972,1950 L884,1886 Z M851,1784 L743,1784 L655,1847 L763,1847 Z M1624,1681 L1591,1784 L1678,1720 L1712,1617 Z M1678,644 L1786,644 L1874,708 L1766,708 Z M1874,913 L1907,811 L1940,913 L1907,1016 Z M971,415 L1005,312 L971,209 L938,312 Z M1624,478 L1712,542 L1678,439 L1591,375 Z M851,375 L884,273 L971,209 L938,312 Z M851,375 L743,375 L655,312 L763,312 Z M339,747 L373,644 L285,708 L252,811 Z M339,1080 L231,1080 L144,1143 L252,1143 Z M339,1080 L231,1080 L144,1016 L252,1016 Z M339,1412 L252,1348 L285,1451 L373,1515 Z M1712,1617 L1820,1617 L1907,1681 L1799,1681 Z M1907,1348 L1940,1246 L2028,1182 L1994,1285 Z M1080,1950 L1167,2013 L1200,2116 L1113,2052 Z M1396,1847 L1362,1950 L1396,2052 L1429,1950 Z M1516,1886 L1483,1989 L1396,2052 L1429,1950 Z M1516,1886 L1624,1886 L1712,1950 L1604,1950 Z M1591,1784 L1678,1847 L1712,1950 L1624,1886 Z M373,1515 L265,1515 L177,1451 L285,1451 Z M427,1681 L339,1617 L373,1720 L460,1784 Z M1712,542 L1820,542 L1907,478 L1799,478 Z M1907,811 L1994,874 L2028,977 L1940,913 Z M1079,209 L1113,107 L1200,43 L1167,146 Z M1396,312 L1429,209 L1396,107 L1362,209 Z M1516,273 L1429,209 L1396,107 L1483,170 Z M1516,273 L1624,273 L1712,209 L1604,209 Z M1591,375 L1624,273 L1712,209 L1678,312 Z M373,644 L265,644 L177,708 L285,708 Z M427,478 L460,375 L373,439 L339,542 Z M177,913 L144,1016 L111,913 L144,811 Z M177,1246 L144,1348 L111,1246 L144,1143 Z M1874,1451 L1961,1515 L1994,1617 L1907,1554 Z M1994,1412 L1961,1515 L1994,1617 L2028,1515 Z M972,1950 L938,2052 L851,2116 L884,2013 Z M1288,2052 L1396,2052 L1308,2116 L1200,2116 Z M655,1847 L622,1950 L655,2052 L689,1950 Z M535,1886 L622,1950 L655,2052 L568,1989 Z M1874,708 L1907,605 L1994,542 L1961,644 Z M1994,747 L2028,644 L1994,542 L1961,644 Z M971,209 L884,146 L851,43 L938,107 Z M1288,107 L1396,107 L1308,43 L1200,43 Z M655,312 L689,209 L655,107 L622,209 Z M535,273 L568,170 L655,107 L622,209 Z M144,811 L111,913 L23,977 L57,874 Z M144,1348 L57,1285 L23,1182 L111,1246 Z "
       fill="transparent"
       id="path4570"
       style="fill:none;stroke:#ffffff;stroke-opacity:1;fill-opacity:1" />
    <path
       d="M1080,1080 L1167,1143 L1254,1080 L1167,1016 Z M1080,1080 L972,1080 L1005,1182 L1113,1182 Z M1080,1080 L972,1080 L1005,977 L1113,977 Z M1113,1182 L1080,1285 L1167,1348 L1200,1246 Z M1113,1182 L1005,1182 L972,1285 L1080,1285 Z M1167,1016 L1200,913 L1288,977 L1254,1080 Z M1167,1143 L1254,1080 L1288,1182 L1200,1246 Z M1113,977 L1200,913 L1167,811 L1080,874 Z M1113,977 L1005,977 L972,874 L1080,874 Z M972,1080 L884,1016 L797,1080 L884,1143 Z M1200,1246 L1308,1246 L1275,1348 L1167,1348 Z M1254,1080 L1362,1080 L1396,1182 L1288,1182 Z M1254,1080 L1362,1080 L1396,977 L1288,977 Z M1200,913 L1308,913 L1275,811 L1167,811 Z M938,977 L972,874 L884,811 L851,913 Z M884,1143 L851,1246 L763,1182 L797,1080 Z M884,1016 L797,1080 L763,977 L851,913 Z M938,1182 L851,1246 L884,1348 L972,1285 Z M1167,1348 L1080,1412 L1113,1515 L1200,1451 Z M1308,1246 L1396,1309 L1483,1246 L1396,1182 Z M1308,1246 L1275,1348 L1362,1412 L1396,1309 Z M972,1285 L1059,1348 L972,1412 L884,1348 Z M1167,811 L1200,708 L1113,644 L1080,747 Z M1308,913 L1396,850 L1362,747 L1275,811 Z M1308,913 L1396,977 L1483,913 L1396,850 Z M972,874 L884,811 L972,747 L1059,811 Z M851,913 L743,913 L776,811 L884,811 Z M797,1080 L689,1080 L655,977 L763,977 Z M797,1080 L689,1080 L655,1182 L763,1182 Z M851,1246 L743,1246 L776,1348 L884,1348 Z M1396,1182 L1429,1080 L1516,1143 L1483,1246 Z M1200,1451 L1288,1515 L1200,1578 L1113,1515 Z M1080,1412 L972,1412 L1005,1515 L1113,1515 Z M1254,1412 L1362,1412 L1396,1515 L1288,1515 Z M884,1348 L851,1451 L938,1515 L972,1412 Z M1396,977 L1483,913 L1516,1016 L1429,1080 Z M1254,747 L1362,747 L1396,644 L1288,644 Z M1080,747 L972,747 L1005,644 L1113,644 Z M1200,708 L1113,644 L1200,581 L1288,644 Z M884,811 L972,747 L938,644 L851,708 Z M743,913 L655,850 L568,913 L655,977 Z M743,913 L776,811 L689,747 L655,850 Z M743,1246 L655,1309 L689,1412 L776,1348 Z M743,1246 L655,1182 L568,1246 L655,1309 Z M1483,1246 L1591,1246 L1624,1348 L1516,1348 Z M1429,1080 L1516,1143 L1604,1080 L1516,1016 Z M1113,1515 L1080,1617 L1167,1681 L1200,1578 Z M1113,1515 L1005,1515 L972,1617 L1080,1617 Z M1288,1515 L1396,1515 L1362,1617 L1254,1617 Z M1362,1412 L1450,1348 L1483,1451 L1396,1515 Z M797,1412 L689,1412 L655,1515 L763,1515 Z M851,1451 L938,1515 L851,1578 L763,1515 Z M1483,913 L1591,913 L1624,811 L1516,811 Z M1288,644 L1396,644 L1362,542 L1254,542 Z M1362,747 L1396,644 L1483,708 L1450,811 Z M1113,644 L1200,581 L1167,478 L1080,542 Z M1113,644 L1005,644 L971,542 L1080,542 Z M851,708 L763,644 L851,581 L938,644 Z M797,747 L689,747 L655,644 L763,644 Z M655,977 L622,1080 L535,1016 L568,913 Z M655,1182 L568,1246 L535,1143 L622,1080 Z M1516,1348 L1624,1348 L1591,1451 L1483,1451 Z M1570,1182 L1678,1182 L1712,1080 L1604,1080 Z M1591,1246 L1678,1182 L1712,1285 L1624,1348 Z M1396,1515 L1483,1578 L1570,1515 L1483,1451 Z M1396,1515 L1362,1617 L1450,1681 L1483,1578 Z M938,1515 L851,1578 L884,1681 L972,1617 Z M763,1515 L655,1515 L689,1617 L797,1617 Z M689,1412 L655,1515 L568,1451 L601,1348 Z M1570,977 L1678,977 L1712,1080 L1604,1080 Z M1516,811 L1624,811 L1591,708 L1483,708 Z M1591,913 L1624,811 L1712,874 L1678,977 Z M1396,644 L1483,581 L1450,478 L1362,542 Z M1396,644 L1483,708 L1570,644 L1483,581 Z M938,644 L971,542 L884,478 L851,581 Z M763,644 L655,644 L689,542 L797,542 Z M689,747 L601,811 L568,708 L655,644 Z M568,913 L460,913 L427,811 L535,811 Z M622,1080 L535,1016 L447,1080 L535,1143 Z M568,1246 L460,1246 L427,1348 L535,1348 Z M1624,1348 L1712,1412 L1799,1348 L1712,1285 Z M1624,1348 L1591,1451 L1678,1515 L1712,1412 Z M1678,1182 L1712,1080 L1799,1143 L1766,1246 Z M1167,1681 L1080,1744 L1113,1847 L1200,1784 Z M1167,1681 L1275,1681 L1308,1784 L1200,1784 Z M972,1617 L1059,1681 L972,1744 L884,1681 Z M1362,1617 L1275,1681 L1308,1784 L1396,1720 Z M1483,1578 L1591,1578 L1624,1681 L1516,1681 Z M655,1515 L568,1578 L601,1681 L689,1617 Z M655,1515 L568,1451 L481,1515 L568,1578 Z M1678,977 L1766,913 L1799,1016 L1712,1080 Z M1624,811 L1712,747 L1678,644 L1591,708 Z M1624,811 L1712,874 L1799,811 L1712,747 Z M1167,478 L1200,375 L1113,312 L1080,415 Z M1167,478 L1275,478 L1308,375 L1200,375 Z M1362,542 L1396,439 L1308,375 L1275,478 Z M1483,581 L1591,581 L1624,478 L1516,478 Z M971,542 L884,478 L971,415 L1059,478 Z M655,644 L568,581 L481,644 L568,708 Z M655,644 L689,542 L601,478 L568,581 Z M535,811 L427,811 L460,708 L568,708 Z M481,977 L373,977 L339,1080 L447,1080 Z M460,913 L373,977 L339,874 L427,811 Z M481,1182 L373,1182 L339,1080 L447,1080 Z M535,1348 L427,1348 L460,1451 L568,1451 Z M460,1246 L427,1348 L339,1285 L373,1182 Z M1766,1246 L1874,1246 L1907,1348 L1799,1348 Z M1766,1246 L1874,1246 L1907,1143 L1799,1143 Z M1200,1784 L1167,1886 L1254,1950 L1288,1847 Z M1080,1744 L972,1744 L1005,1847 L1113,1847 Z M884,1681 L851,1784 L938,1847 L972,1744 Z M884,1681 L776,1681 L743,1784 L851,1784 Z M1396,1720 L1483,1784 L1396,1847 L1308,1784 Z M1516,1681 L1624,1681 L1591,1784 L1483,1784 Z M1591,1578 L1678,1515 L1712,1617 L1624,1681 Z M689,1617 L655,1720 L743,1784 L776,1681 Z M568,1578 L460,1578 L427,1681 L535,1681 Z M1766,913 L1874,913 L1907,1016 L1799,1016 Z M1766,913 L1874,913 L1907,811 L1799,811 Z M1080,415 L971,415 L1005,312 L1113,312 Z M1200,375 L1288,312 L1254,209 L1167,273 Z M1396,439 L1308,375 L1396,312 L1483,375 Z M1516,478 L1624,478 L1591,375 L1483,375 Z M1591,581 L1624,478 L1712,542 L1678,644 Z M884,478 L971,415 L938,312 L851,375 Z M884,478 L776,478 L743,375 L851,375 Z M689,542 L776,478 L743,375 L655,439 Z M568,581 L460,581 L427,478 L535,478 Z M427,811 L339,747 L252,811 L339,874 Z M427,811 L460,708 L373,644 L339,747 Z M373,977 L339,1080 L252,1016 L285,913 Z M373,1182 L285,1246 L252,1143 L339,1080 Z M427,1348 L339,1412 L373,1515 L460,1451 Z M427,1348 L339,1285 L252,1348 L339,1412 Z M1678,1515 L1786,1515 L1820,1617 L1712,1617 Z M1799,1348 L1907,1348 L1874,1451 L1766,1451 Z M1820,1080 L1907,1143 L1994,1080 L1907,1016 Z M1113,1847 L1005,1847 L972,1950 L1080,1950 Z M1288,1847 L1396,1847 L1362,1950 L1254,1950 Z M1167,1886 L1254,1950 L1167,2013 L1080,1950 Z M851,1784 L763,1847 L797,1950 L884,1886 Z M1483,1784 L1396,1847 L1429,1950 L1516,1886 Z M1483,1784 L1591,1784 L1624,1886 L1516,1886 Z M655,1720 L743,1784 L655,1847 L568,1784 Z M535,1681 L427,1681 L460,1784 L568,1784 Z M460,1578 L427,1681 L339,1617 L373,1515 Z M1678,644 L1786,644 L1820,542 L1712,542 Z M1799,811 L1907,811 L1874,708 L1766,708 Z M1113,312 L1005,312 L971,209 L1079,209 Z M1167,273 L1079,209 L1167,146 L1254,209 Z M1288,312 L1396,312 L1362,209 L1254,209 Z M1483,375 L1516,273 L1429,209 L1396,312 Z M1483,375 L1591,375 L1624,273 L1516,273 Z M851,375 L884,273 L797,209 L763,312 Z M655,439 L568,375 L655,312 L743,375 Z M535,478 L427,478 L460,375 L568,375 Z M460,581 L373,644 L339,542 L427,478 Z M285,913 L177,913 L144,811 L252,811 Z M285,913 L177,913 L144,1016 L252,1016 Z M285,1246 L177,1246 L144,1143 L252,1143 Z M285,1246 L177,1246 L144,1348 L252,1348 Z M1712,1617 L1678,1720 L1766,1784 L1799,1681 Z M1786,1515 L1874,1451 L1907,1554 L1820,1617 Z M1907,1348 L1994,1412 L2082,1348 L1994,1285 Z M1907,1348 L1874,1451 L1961,1515 L1994,1412 Z M1907,1016 L1940,913 L2028,977 L1994,1080 Z M1907,1143 L1994,1080 L2028,1182 L1940,1246 Z M1080,1950 L972,1950 L1005,2052 L1113,2052 Z M1254,1950 L1167,2013 L1200,2116 L1288,2052 Z M1254,1950 L1362,1950 L1396,2052 L1288,2052 Z M884,1886 L972,1950 L884,2013 L797,1950 Z M763,1847 L655,1847 L689,1950 L797,1950 Z M1591,1784 L1678,1847 L1766,1784 L1678,1720 Z M568,1784 L535,1886 L622,1950 L655,1847 Z M568,1784 L460,1784 L427,1886 L535,1886 Z M373,1515 L265,1515 L231,1617 L339,1617 Z M1712,542 L1799,478 L1766,375 L1678,439 Z M1786,644 L1820,542 L1907,605 L1874,708 Z M1907,811 L1994,747 L1961,644 L1874,708 Z M1907,811 L1994,874 L2082,811 L1994,747 Z M1079,209 L971,209 L1005,107 L1113,107 Z M1254,209 L1288,107 L1200,43 L1167,146 Z M1254,209 L1362,209 L1396,107 L1288,107 Z M1591,375 L1678,439 L1766,375 L1678,312 Z M763,312 L655,312 L689,209 L797,209 Z M884,273 L797,209 L884,146 L971,209 Z M568,375 L655,312 L622,209 L535,273 Z M568,375 L460,375 L427,273 L535,273 Z M373,644 L265,644 L231,542 L339,542 Z M252,811 L144,811 L177,708 L285,708 Z M231,1080 L144,1016 L57,1080 L144,1143 Z M252,1348 L144,1348 L177,1451 L285,1451 Z M1799,1681 L1907,1681 L1874,1784 L1766,1784 Z M1820,1617 L1907,1681 L1994,1617 L1907,1554 Z M1994,1285 L2028,1182 L2115,1246 L2082,1348 Z M1994,1080 L2102,1080 L2136,1182 L2028,1182 Z M1994,1080 L2102,1080 L2136,977 L2028,977 Z M797,1950 L763,2052 L851,2116 L884,2013 Z M797,1950 L689,1950 L655,2052 L763,2052 Z M460,1784 L373,1720 L285,1784 L373,1847 Z M339,1617 L252,1681 L285,1784 L373,1720 Z M265,1515 L231,1617 L144,1554 L177,1451 Z M1799,478 L1907,478 L1874,375 L1766,375 Z M1820,542 L1907,605 L1994,542 L1907,478 Z M1994,874 L2082,811 L2115,913 L2028,977 Z M797,209 L884,146 L851,43 L763,107 Z M797,209 L689,209 L655,107 L763,107 Z M460,375 L373,312 L285,375 L373,439 Z M339,542 L373,439 L285,375 L252,478 Z M265,644 L177,708 L144,605 L231,542 Z M144,1143 L111,1246 L23,1182 L57,1080 Z M144,1016 L57,1080 L23,977 L111,913 Z "
       fill="transparent"
       id="path4572"
       style="fill:none;stroke:#ffffff;stroke-opacity:1;fill-opacity:1" />
  </g>
</svg>
