<?xml version="1.0" encoding="UTF-8" standalone="no"?>
<svg
   xmlns:dc="http://purl.org/dc/elements/1.1/"
   xmlns:cc="http://creativecommons.org/ns#"
   xmlns:rdf="http://www.w3.org/1999/02/22-rdf-syntax-ns#"
   xmlns:svg="http://www.w3.org/2000/svg"
   xmlns="http://www.w3.org/2000/svg"
   xmlns:sodipodi="http://sodipodi.sourceforge.net/DTD/sodipodi-0.dtd"
   xmlns:inkscape="http://www.inkscape.org/namespaces/inkscape"
   width="320"
   height="320"
   viewBox="0 0 320 320"
   version="1.1"
   id="svg4739"
   sodipodi:docname="penrose_small2.svg"
   inkscape:version="0.92.4 5da689c313, 2019-01-14">
  <metadata
     id="metadata4745">
    <rdf:RDF>
      <cc:Work
         rdf:about="">
        <dc:format>image/svg+xml</dc:format>
        <dc:type
           rdf:resource="http://purl.org/dc/dcmitype/StillImage" />
        <dc:title></dc:title>
      </cc:Work>
    </rdf:RDF>
  </metadata>
  <defs
     id="defs4743" />
  <sodipodi:namedview
     pagecolor="#ffffff"
     bordercolor="#666666"
     borderopacity="1"
     objecttolerance="10"
     gridtolerance="10"
     guidetolerance="10"
     inkscape:pageopacity="0"
     inkscape:pageshadow="2"
     inkscape:window-width="1920"
     inkscape:window-height="1016"
     id="namedview4741"
     showgrid="false"
     inkscape:zoom="0.7375"
     inkscape:cx="160"
     inkscape:cy="160"
     inkscape:window-x="0"
     inkscape:window-y="27"
     inkscape:window-maximized="1"
     inkscape:current-layer="svg4739" />
  <g
     stroke="rgb(0, 0, 0)"
     stroke-width="3"
     stroke-linecap="round"
     stroke-linejoin="round"
     fill="transparent"
     id="g4737"
     style="fill:none;fill-opacity:1;stroke:#333333;stroke-opacity:1;stroke-width:8;stroke-miterlimit:4;stroke-dasharray:none">
    <path
       d="M160,160 L181,175 L189,201 L168,185 Z M160,160 L168,134 L189,118 L181,144 Z M133,160 L111,144 L103,118 L125,134 Z M133,160 L125,185 L133,210 L141,185 Z M133,160 L125,185 L103,201 L111,175 Z M133,160 L141,134 L133,109 L125,134 Z M189,201 L216,201 L238,185 L211,185 Z M160,210 L133,210 L154,226 L181,226 Z M189,118 L216,118 L238,134 L211,134 Z M160,109 L133,109 L154,93 L181,93 Z M181,226 L203,242 L211,267 L189,251 Z M181,226 L154,226 L133,242 L160,242 Z M181,226 L208,226 L229,242 L203,242 Z M229,160 L238,134 L246,160 L238,185 Z M181,93 L189,68 L211,52 L203,77 Z M181,93 L154,93 L133,77 L160,77 Z M181,93 L208,93 L229,77 L203,77 Z M103,118 L76,118 L55,134 L81,134 Z M103,201 L76,201 L55,185 L81,185 Z M238,216 L229,242 L251,226 L259,201 Z M111,226 L103,251 L81,267 L90,242 Z M111,226 L85,226 L63,242 L90,242 Z M238,103 L259,118 L251,93 L229,77 Z M111,93 L90,77 L81,52 L103,68 Z M111,93 L85,93 L63,77 L90,77 Z M63,160 L55,185 L47,160 L55,134 Z M259,201 L251,226 L259,251 L267,226 Z M259,201 L267,175 L289,159 L281,185 Z M259,201 L286,201 L307,185 L281,185 Z M211,267 L203,292 L181,308 L189,283 Z M133,242 L125,267 L133,292 L141,267 Z M259,118 L281,134 L289,159 L267,144 Z M259,118 L267,93 L259,68 L251,93 Z M259,118 L286,118 L307,134 L281,134 Z M211,52 L189,36 L181,11 L203,27 Z M133,77 L141,52 L133,27 L125,52 Z M55,103 L63,77 L41,93 L33,118 Z M55,216 L33,201 L41,226 L63,242 Z M160,292 L133,292 L154,308 L181,308 Z M203,292 L229,292 L208,308 L181,308 Z M81,267 L103,283 L111,308 L90,292 Z M203,27 L229,27 L208,11 L181,11 Z M159,27 L133,27 L154,11 L181,11 Z M81,52 L90,27 L111,11 L103,36 Z M33,118 L25,144 L3,160 L12,134 Z M33,118 L41,93 L33,68 L25,93 Z M33,201 L12,185 L3,160 L25,175 Z M33,201 L25,226 L33,251 L41,226 Z "
       fill="transparent"
       id="path4733"
       style="fill:none;fill-opacity:1;stroke:#333333;stroke-opacity:1;stroke-width:8;stroke-miterlimit:4;stroke-dasharray:none" />
    <path
       d="M160,160 L181,175 L203,160 L181,144 Z M160,160 L133,160 L141,185 L168,185 Z M160,160 L133,160 L141,134 L168,134 Z M168,185 L160,210 L181,226 L189,201 Z M168,185 L141,185 L133,210 L160,210 Z M181,144 L189,118 L211,134 L203,160 Z M181,175 L203,160 L211,185 L189,201 Z M168,134 L189,118 L181,93 L160,109 Z M168,134 L141,134 L133,109 L160,109 Z M133,160 L111,144 L90,160 L111,175 Z M189,201 L216,201 L208,226 L181,226 Z M203,160 L229,160 L238,185 L211,185 Z M203,160 L229,160 L238,134 L211,134 Z M189,118 L216,118 L208,93 L181,93 Z M125,134 L133,109 L111,93 L103,118 Z M111,175 L103,201 L81,185 L90,160 Z M111,144 L90,160 L81,134 L103,118 Z M125,185 L103,201 L111,226 L133,210 Z M181,226 L160,242 L168,267 L189,251 Z M216,201 L238,216 L259,201 L238,185 Z M216,201 L208,226 L229,242 L238,216 Z M133,210 L154,226 L133,242 L111,226 Z M181,93 L189,68 L168,52 L160,77 Z M216,118 L238,103 L229,77 L208,93 Z M216,118 L238,134 L259,118 L238,103 Z M133,109 L111,93 L133,77 L154,93 Z M103,118 L76,118 L85,93 L111,93 Z M90,160 L63,160 L55,134 L81,134 Z M90,160 L63,160 L55,185 L81,185 Z M103,201 L76,201 L85,226 L111,226 Z M238,185 L246,160 L267,175 L259,201 Z M189,251 L211,267 L189,283 L168,267 Z M160,242 L133,242 L141,267 L168,267 Z M203,242 L229,242 L238,267 L211,267 Z M111,226 L103,251 L125,267 L133,242 Z M238,134 L259,118 L267,144 L246,160 Z M203,77 L229,77 L238,52 L211,52 Z M160,77 L133,77 L141,52 L168,52 Z M189,68 L168,52 L189,36 L211,52 Z M111,93 L133,77 L125,52 L103,68 Z M76,118 L55,103 L33,118 L55,134 Z M76,118 L85,93 L63,77 L55,103 Z M76,201 L55,216 L63,242 L85,226 Z M76,201 L55,185 L33,201 L55,216 Z M259,201 L286,201 L294,226 L267,226 Z M246,160 L267,175 L289,159 L267,144 Z M168,267 L160,292 L181,308 L189,283 Z M168,267 L141,267 L133,292 L160,292 Z M211,267 L238,267 L229,292 L203,292 Z M229,242 L251,226 L259,251 L238,267 Z M90,242 L63,242 L55,267 L81,267 Z M103,251 L125,267 L103,283 L81,267 Z M259,118 L286,118 L294,93 L267,93 Z M211,52 L238,52 L229,27 L203,27 Z M229,77 L238,52 L259,68 L251,93 Z M168,52 L189,36 L181,11 L159,27 Z M168,52 L141,52 L133,27 L159,27 Z M103,68 L81,52 L103,36 L125,52 Z M90,77 L63,77 L55,52 L81,52 Z M55,134 L47,160 L25,144 L33,118 Z M55,185 L33,201 L25,175 L47,160 Z M267,226 L294,226 L286,251 L259,251 Z M281,185 L307,185 L316,159 L289,159 Z M125,267 L103,283 L111,308 L133,292 Z M63,242 L55,267 L33,251 L41,226 Z M281,134 L307,134 L316,159 L289,159 Z M267,93 L294,93 L286,68 L259,68 Z M125,52 L133,27 L111,11 L103,36 Z M63,77 L41,93 L33,68 L55,52 Z M47,160 L25,144 L3,160 L25,175 Z "
       fill="transparent"
       id="path4735"
       style="fill:none;fill-opacity:1;stroke:#333333;stroke-opacity:1;stroke-width:8;stroke-miterlimit:4;stroke-dasharray:none" />
  </g>
</svg>
