<svg version="1.1" xmlns="http://www.w3.org/2000/svg" viewBox="0 0 874.0000000000002 778.3648813458781">
  <!-- svg-source:excalidraw -->
  <defs>
    <style>
      @font-face {
        font-family: "Virgil";
        src: url("https://excalidraw.com/FG_Virgil.woff2");
      }
      @font-face {
        font-family: "Cascadia";
        src: url("https://excalidraw.com/Cascadia.woff2");
      }
    </style>
  </defs>
  <g transform="translate(30 132.66666666666669) rotate(0 315.0000000000001 51.66666666666666)"><path d="M0 0 C0 0, 0 0, 0 0 M0 0 C0 0, 0 0, 0 0 M-0.3658928117622029 12.56826202017027 C1.538839837953172 11.858194755170244, 7.032356101154185 5.017329679330425, 13.599207036149632 0.6214528764679792 M1.218636571718346 12.986132009744226 C4.719142893202347 5.988493981779942, 8.920975118813663 3.760298863978649, 11.807650041532648 0.3737657199695468 M-2.302732098642805 22.779223600118517 C8.235706314559712 15.569268429771501, 14.638523338415325 2.1511787640285895, 17.484881485158468 2.5113918794482473 M-0.470143982935765 23.6401568946383 C6.624701482934529 17.963641542216177, 9.97685362800548 14.393926671387641, 22.23997980756488 -0.13748724067811935 M0.17554408115330133 34.008975112625706 C11.393884197539458 23.551929446412696, 22.31550030337454 12.521504226112555, 33.48838787288109 -1.3331554642633314 M-1.6722652540635785 38.404554858618724 C10.94757407365422 21.192061987773286, 24.885284807665116 10.202258083687887, 30.623248427591122 -0.479319056378376 M0.778388964012187 46.9144941872441 C11.048806176101277 37.42102424907125, 17.600584760154206 30.924913428061956, 41.87800647373848 0.8449374202965743 M-0.050635311752635914 49.083678743475005 C8.86776385878837 37.253339216453234, 20.717238137915178 21.85718852782827, 42.09724390003436 -0.3452578514487499 M3.219494497505835 58.49988005263398 C12.120247493250858 50.08248024419141, 27.738683345529868 36.0573005377466, 52.652394514293135 -1.7713460684345357 M0.4122097642252953 60.05851986771117 C13.49366687479994 49.06689866770677, 24.473119345349172 32.49436696231231, 55.114786049113334 0.3304312373920091 M1.3412679081967482 75.60436610723285 C19.986526319178896 51.96209255107685, 36.29275287585463 32.83351272604157, 63.907865471107556 1.9658212179808388 M-1.5027852019110313 74.31668809460847 C25.41094952033877 43.92665110321232, 50.233195298310115 18.864940094420447, 61.923616574046804 0.28731119842515085 M0.08377267264742727 88.0320294994782 C22.23435591936147 60.188048656805336, 37.11972214634264 39.50539057354457, 71.46338907074424 -2.455889822019799 M-0.7197535109428657 85.01962141244815 C31.541945167208304 51.42482948619148, 59.72501503416229 19.80558414887649, 74.75389904905352 1.751273144931929 M0.4536694884298669 101.68150070803031 C19.684411072977216 71.86266354441935, 48.23107608083707 47.26629385117305, 82.4855912897657 -2.8339645399989593 M-0.3364656176419629 97.06979551473424 C31.55968398139163 61.85979641294284, 63.28473441849601 24.799038061496972, 86.00571892335222 1.2470363151935828 M3.0537475350401166 104.12857731976726 C31.930202082509624 67.96386362219744, 63.873892145892206 32.235530277717274, 93.11375435473443 0.12395546248086475 M2.4677021301439765 107.13083757818856 C34.36340027728188 73.20528030058024, 61.854052648246416 35.10271422796933, 94.43658352116168 -1.5893519275086305 M11.147334183993209 104.54831983201272 C31.52237561556715 84.95846976920441, 52.46831901662459 62.36294314324684, 110.0848167422129 -2.8249276661428198 M12.058677201586235 107.98712206497855 C44.09173072305313 73.81938722271065, 74.98158858133161 39.869836223002736, 105.3489220417006 -1.198016094893454 M27.098468592956067 108.65598577565467 C61.6458529663378 67.9291717070985, 93.16379935171878 30.612931608244622, 119.70231414977314 3.671141552790253 M25.350364477007986 105.92220484583592 C49.3727475700593 74.04032421156418, 75.74291589039355 46.72625509202301, 116.12152653019729 -0.5280429934568716 M31.710495488491183 106.70487104913059 C65.50764733412542 71.7461945768884, 90.3256219268794 33.72816531294944, 128.08561561195864 -3.0853663927279698 M35.70574003062797 105.15416453404191 C66.72290618059942 71.04922612496003, 93.11833702874728 37.10137069196276, 127.02128799385144 0.7561799546368135 M46.63441584716108 102.16311530087799 C75.93966580664198 71.80577032318993, 101.57030413924562 44.71222045561527, 134.85856932634144 1.0619914759627846 M45.907701811664964 106.94990786787778 C72.57404419171834 76.75457653567236, 97.1815084956927 47.091727715728055, 139.45434222789137 -0.38427780710837567 M55.993886895528235 104.08870192933438 C74.91499732169925 88.67718983570285, 92.4161878352764 62.71228479496749, 149.39873876948397 0.47979230730004474 M54.34656964433769 106.43766971062479 C86.71770992623476 73.07529446248935, 116.22424184852821 40.089572215064635, 146.77780593153577 1.4307717095888393 M68.01022211015515 107.50445808293725 C103.96490417241102 63.394427005189954, 134.08414258236886 24.388794013274378, 159.8063436679488 -3.125543000278725 M67.20758522786491 107.41951305056418 C95.40917433061936 73.25908108994463, 125.08622767579405 40.01401916615714, 159.83121767900343 1.5678446180096728 M76.62739121760434 109.7730546601241 C101.97379258223891 74.42840990916169, 125.56604403731444 51.82022430165261, 170.52925999829836 -2.3327497983360104 M76.65841213646537 107.1838290009772 C100.28020835953326 79.22947067402178, 124.53845433266252 52.101956145341624, 171.12403791951306 0.19228515643538913 M91.13702019443829 106.97200630933244 C117.5448833937615 72.14650065346612, 145.36322382209318 37.219267538357556, 179.98801998709519 0.36928031156568863 M89.03663581935783 107.3178368001451 C112.7617942079123 81.22986453289211, 132.2524284945389 54.82560070544488, 181.02314897728343 -0.9192343118527617 M97.80339126721951 102.26867142899977 C124.09323986347938 75.35278080106131, 154.11369948862097 40.66937460965179, 194.20081211090184 -3.043500522136128 M99.03726360076102 106.52008381134914 C114.52970236481762 80.93583950306616, 134.607435126561 57.84426634065668, 189.94035505153334 0.43378670142647024 M105.4884429125105 102.29525216756359 C143.74423801989659 74.8606498887463, 170.75446562865324 35.34965400194913, 204.4084810962807 -1.755296401003946 M109.90022467989371 107.41294552287057 C128.3342185004818 84.98910537093431, 148.4364265038963 62.67997505743454, 200.51988221648145 -0.31182319044565077 M123.27676985687374 109.52379442346138 C135.9052057052625 83.46205449690167, 162.10594633240595 58.17288577870099, 208.69952791979432 -1.7354676766002939 M119.59787013097464 105.35512554799062 C151.4571314364087 66.56470889686545, 188.21434590922502 29.992250661085336, 213.82587842134654 0.3295927508120968 M133.44456404788124 103.39589742535344 C163.96866227653754 64.13476203552948, 195.7050577262856 32.50587373994385, 221.63510980800524 -1.3635309504876574 M128.36641387423205 108.00886520521334 C152.79576236712194 80.74559416691582, 176.7356806898418 54.44238087883296, 223.5299134903474 -1.2949806115190228 M143.70885077007654 109.67887541123172 C160.28590550166422 84.61329526762484, 181.6520904140867 55.99029260932988, 231.87404023747592 -3.0541590742285223 M139.51766879186573 105.13360519737442 C165.33756847372263 79.8518101023742, 187.2970327178522 50.50994082967792, 232.09847912270277 -1.1647302891577453 M148.9161344710316 105.36901510975646 C173.5935800331742 81.9445696540507, 197.18930114803027 53.30823461739341, 243.79778893476885 3.117818850614583 M151.6901925541039 107.92674309297787 C178.61943724137575 78.56299716662781, 201.00997789743047 48.78273187106225, 244.98048889263134 1.2274848311771507 M159.29163487730887 104.04773741936519 C185.6400144876785 78.4705096258669, 199.69730908050528 53.99364566202905, 251.13548187644653 3.7924174724791726 M163.66102373516526 106.81729500530496 C196.7943084081409 66.87149704250021, 231.5653263531631 22.679351337005627, 254.7947782493519 1.6876339877669295 M173.40822796547096 105.01130698849542 C197.08843502841268 79.04929686083273, 224.86032117051414 44.72121725389619, 262.5889012890715 2.699495189802775 M173.87712278426866 107.03310517263694 C198.35645556963522 72.792557153302, 226.2036814453698 39.049710515411604, 263.5176045170832 0.1330145438928696 M179.8114459620803 109.6458322155846 C215.9620727203962 66.37517266108463, 254.97673833271446 26.194177492304036, 275.45748564920626 1.033754151022805 M182.6428720256328 105.41334595825502 C215.36552291703427 66.9385437208852, 247.20178772120227 30.012126080497595, 274.67014689504407 -0.5952480121638644 M194.6444773436994 109.8022652490703 C224.84352744479148 70.52393862563744, 253.7753150719584 32.333565092497054, 285.26332968341325 -2.170259745423124 M192.30757565847642 105.22101785044052 C217.83483411687405 81.19469353416395, 245.76320790592234 51.64426710193617, 287.5060064574531 -1.9197000671219087 M207.2731668368908 104.17140198738998 C237.31107427681235 67.05801652262531, 267.22128774274535 31.537227044692344, 299.376184368255 2.3368431489024033 M205.4529597570183 104.95544946247465 C235.199731634128 69.20982515086052, 268.24983805660935 34.45393445869438, 297.19870615352914 1.2859401172999014 M217.91101541821695 102.65888207898112 C249.12230948257294 65.52089821916883, 282.8142224136541 20.666472385577393, 306.63845693029407 2.394296232436915 M217.08067227047718 105.16479753263863 C241.98869577429116 74.97330113057126, 271.35539471572025 39.971218312720296, 309.029190807491 1.5092824043828443 M223.24418031424034 102.76018892228127 C254.93153782421365 74.10782587818042, 277.67349481894814 43.43631050647632, 314.99021084609285 0.8061766536179107 M224.79978302307177 105.25854692421377 C247.76457125909886 79.18820355178224, 270.30895269990606 54.384552000334246, 318.57332711855724 1.41176478240817 M238.0564750015235 109.93564966572788 C272.68267203474915 62.26234337349956, 302.05057940620145 22.80734543642275, 329.0941658422139 -0.28359468911710906 M237.01428371402085 106.32001062548127 C270.78688529135985 66.33372666300446, 302.5439543639831 29.20424911257372, 329.88940366094675 -1.3588466353428714 M248.85436920662895 105.9854352077585 C272.87306406011936 79.92803101072512, 294.4549209021023 58.936739810328035, 339.9606978952197 -3.0162531473306444 M247.1105879175432 107.91882974972243 C274.4715407027099 77.6841626308487, 299.91243240399336 49.0896590781833, 339.70563088387826 0.6440423894109699 M259.49198890611916 109.4245601968106 C287.6703249603839 69.92704516388233, 320.6597566098859 31.926234301373327, 349.91678020268233 3.311519257637599 M257.64503108285754 106.92347353521848 C288.5828126966949 73.25547655320256, 319.6696672557789 37.3885763128833, 350.95158208258005 2.2330638001737384 M268.7961163265566 103.85788303132166 C296.9223199915201 74.84360168298281, 320.5731438627854 47.382913519291954, 356.8552192991451 3.603755513779504 M266.5313705341826 106.31373934525062 C291.39002732747963 79.01751836402983, 311.8381633902217 56.907034167772224, 359.5699295142517 1.380548924781067 M276.19118994450383 106.35510585972924 C313.4123561963918 74.1947662680367, 340.420108881371 36.359546572375265, 367.9233008821803 1.86846109975545 M279.22828547073715 105.99325266810018 C312.1518025954447 69.213501304271, 346.01638489495076 33.510549514125316, 368.76759022412176 0.5592859567370851 M291.3243044865234 103.82577458047076 C310.0290123884934 80.35962682782613, 334.32209070937813 54.76633993087887, 383.7720259283502 -1.4262243359971762 M290.92687696674 107.60196711704835 C308.77295258976807 80.8696517848659, 332.4849580984429 56.619596060469654, 379.8274621614088 -1.4638183656770707 M299.6902109291776 105.3942788419838 C319.50175107390896 81.25387365513603, 340.14464450500196 59.87236236572734, 391.52505166421736 -0.2223173950407613 M298.7381679714098 105.32866443037642 C327.82473918989814 74.89567236722989, 355.9189787470737 42.605371829770675, 393.6398651503315 -0.06052917918003686 M312.25631649902914 102.77485204270583 C345.5685839540359 62.232535311378584, 378.04757327223393 19.745197494046636, 402.40369156634426 -2.4969909289378904 M311.8806033089653 106.72345447136563 C336.6292530865126 72.0111695078659, 366.2465062595862 37.478762136428074, 402.8900408901087 2.0712165045093514 M323.0876846726404 106.64657133107431 C347.91731978979266 68.34787030149093, 380.7327739830183 34.216081499376, 413.35191536129344 2.112425960748965 M319.8675496786253 107.51027522829719 C345.9831363707685 78.16537419076992, 369.76705969652835 48.92424237309505, 414.24565295495916 -0.2801902013276276 M334.972035176574 107.02835760552681 C364.8233843724369 71.58555937149016, 391.16105189402555 30.334329627754684, 420.6613490256274 -1.3165520775426955 M330.69479565460864 104.39939281445241 C359.5086541851431 72.5404919483801, 385.8643723267434 45.14268554034794, 424.5442867941016 -0.02753005840972378 M341.0447439873923 109.65397551450079 C377.97069903632155 61.65007016832131, 411.20098607042024 20.387419877834617, 437.5962747859086 3.383433354624657 M343.02805168613384 105.89990146811252 C373.70675314378366 68.41477184671376, 405.2363065575018 33.119822863662776, 434.9809497317548 -0.9722557034556587 M350.4138433316579 104.34703345643372 C382.335741974052 74.20805189329391, 414.74372098830275 40.02196308403683, 444.0186311186996 3.844584405688437 M352.3904500974199 105.13222355255873 C378.1305330935782 74.72971050946646, 403.79966142295507 45.90103707999716, 443.2955709671375 1.0080083518157323 M361.1289626569428 110.15069315998593 C380.0876825675408 82.50504697309526, 400.5390580528412 53.86677227687312, 452.0130127505629 -0.461053025913742 M362.6939860586949 107.39531913629511 C396.03384655796305 69.5581052109323, 427.23425421324845 28.66122916167771, 453.9605015744685 -1.228034279314187 M372.4305647477904 108.68383136314937 C400.2104883831317 72.99242745846493, 427.37197015118153 45.08565720959594, 463.5116706580609 -1.8465892917444648 M375.05125370215865 107.96034767215737 C406.4189516092728 69.73991762222559, 437.95159999040794 28.81431875957837, 466.3680145029664 0.7271481414357481 M386.4385915517728 109.04429729458425 C410.52431862478227 80.62955555129273, 432.1430790143719 52.52119521105145, 479.91951206775616 -0.03529099336620334 M384.02659194803937 107.41142547864948 C405.0391889064401 82.02048471392257, 423.4769299187732 57.33965276879785, 477.01780457685004 -0.35758452265318397 M396.40170029545243 105.16507435272817 C416.7800217286001 77.37454436330887, 444.5809347019466 47.2045527783496, 483.7391004562112 2.2144190176585425 M394.44782062055583 105.43928741905276 C428.88035445345355 67.17860993900278, 460.51440906696735 34.08072306719123, 487.7044884953382 -0.5395442832997333 M407.66620445539183 104.94398968601851 C435.07040617154854 65.44621235422082, 472.9715926672842 28.311217548494866, 496.1956555499885 -0.5160383602327272 M404.9376814189268 104.40849648164837 C434.7837121803853 71.83699518991514, 463.2522485535102 35.364036327615494, 499.70510483264957 0.11028497277735028 M415.3010737581535 106.6187141928929 C435.35409221608387 82.44284816835248, 455.5479642961267 57.847751733232776, 510.86205332565055 -3.9303984786025126 M418.101337917371 106.16994377971767 C453.9808182085639 65.87117937908101, 489.1615702601538 24.105310648243815, 509.96661403800294 0.3197474838593166 M425.7229341803 103.1417625217887 C443.81163304286133 79.79050448643909, 469.4679214646599 57.04699835193601, 519.2838260097599 -1.642552939013342 M428.71387556510723 106.8733485515418 C455.90394995843207 71.80248004513227, 486.8100686687484 37.93480223714202, 521.2933984356171 -1.5719843867726127 M434.3210679483937 106.55549307114359 C460.36590802524285 74.59438689944706, 486.1967301377748 48.91869935276012, 532.604162078879 3.1984504069724267 M437.90780168635416 105.77975816040214 C472.5011467244048 67.55449780272892, 503.9384980316662 32.49949839874398, 530.5347622247107 -0.8019101508370454 M447.08241353899723 104.36710798939487 C482.56189813923197 72.23540532370849, 510.5062153517795 30.641389895715776, 543.1889062595704 -1.716592542207934 M449.36054548033064 108.07404809457978 C472.29094136780304 81.06411240404687, 492.0195014112761 57.52368851139549, 542.7724314795026 -1.370701195052959 M458.21656567867296 107.92365317498016 C496.80945678089336 64.023837283516, 528.5847600607653 22.21842990890653, 554.2515595283966 -1.4820421381168103 M459.4819580212553 105.67742196735608 C486.4085794118747 72.35483117930067, 518.566140988062 38.14519084225273, 551.5080541492115 -1.23020078113899 M471.78077534398346 108.78701827633697 C499.01705335614713 67.84534735414277, 532.2878444465829 32.76779688633306, 565.47827911192 -1.6024149823166454 M469.60181225834697 108.0599115170123 C495.4549557268589 78.71340542279597, 519.4832028571639 48.107164173955134, 560.8507000580561 0.5290759541861689 M479.30494976149123 103.10893669190273 C509.10509481309 72.53184028215443, 533.0194600976411 42.612497119565774, 570.6528784867031 0.38261607363000394 M480.15730301582437 107.05287660682961 C516.2477640153444 67.78019574766287, 554.5815223443657 24.828541371452275, 573.7043609052552 -1.5095580007962894 M489.41665240775876 104.00598557011494 C512.2136255974812 86.3498302060749, 535.9130744248627 62.859637633404844, 582.625768350318 0.02793150838334668 M490.88054699290626 107.66150522508929 C508.7930018178548 83.19070144301493, 531.9039310097171 59.23092350728827, 581.299391236037 -1.521751952582406 M505.46610300934856 109.93458580941123 C528.0203905711049 76.81277080747768, 563.5270072969195 43.06470708307107, 593.5631927373082 3.3391268099354647 M502.9860827638114 104.87731348507268 C529.7924278348027 72.709690082297, 559.5268613791061 38.67833368526399, 594.0042445576013 1.3515441766636513 M515.1511775428232 109.06600205822892 C529.0217305673574 80.3950570124315, 551.198252487746 64.34226361285445, 604.6358748452458 -0.3242300430534897 M511.35837077775864 106.49064562506086 C538.6731180973806 76.06454078402561, 568.9650694719693 43.39271522607645, 603.5766191651765 0.3448373304457846 M524.1424082347451 103.66134271500559 C553.6295991172871 72.87804464529577, 586.3669786352302 39.902370896796924, 618.268253150693 3.107563097854097 M522.7392933589665 105.90317400833518 C551.4823276005877 70.46541855791834, 584.475604901496 32.5044823972853, 613.975194257981 0.8617529970453575 M529.7079835616767 106.44655992817877 C564.6974686966707 65.87896677164782, 601.9894141179523 21.31000248467403, 623.1074223802125 -2.4559478689043885 M531.9156547066539 104.94039912317692 C558.0215296077596 81.75163300497466, 579.005788656068 52.292022581815445, 626.8910709102338 2.0422447897435063 M546.3387482501805 108.98744959618597 C564.0019693738077 85.11374433221619, 584.7903498271738 63.88418097406058, 637.0238973944047 0.12846502599978749 M543.9066808950395 106.66414958286731 C563.6835335659086 82.93836603204382, 584.278366500089 57.721724187331354, 631.3110359551915 2.5939327677127153 M555.3732032768191 102.06465136746462 C577.2005299840184 80.49943012914142, 602.1624828497797 55.95053885693291, 636.736613187908 13.612711822786139 M554.1515198733421 106.18508212568756 C578.9196229067087 80.82563968607285, 599.475824419156 58.27295169035946, 633.7050619851489 13.604603436016248 M562.622505868155 108.04864864045223 C583.9997626321835 81.17457940272234, 606.950283012441 65.49860368148177, 635.1833415851713 28.619354707218974 M566.6967414657804 107.47518161491891 C587.6336581943706 80.84260429385913, 605.9924930431488 55.167553161523806, 633.9592240472109 27.241679820262164 M571.9954695007507 105.2747685635864 C587.2536905581402 89.23196651820774, 605.6829185010075 80.47456401218653, 630.1518023127567 40.16731457773585 M574.3838373715732 106.18026103884273 C592.15107648484 86.36156260566982, 607.9586438924006 67.6920028224547, 634.569310715596 37.71542803373177 M586.4675048721781 109.17289161552728 C600.6692253448072 86.71439827763781, 618.5297673085361 71.09829302465454, 633.7773713472269 50.990356082774156 M584.3806621359488 107.18717109096289 C600.0997141220668 92.24595056217271, 611.0955997318941 78.47422377931116, 632.7010324395231 51.0349423147062 M600.3298560169809 109.62361328426684 C601.1983285399333 95.27063410802232, 609.2654993899698 85.12309326560059, 633.5120218861539 64.66679720099421 M596.993169266107 108.41746184911514 C604.8890972608589 93.23784673068926, 617.9439733277036 84.21247833023926, 633.7214625142205 62.57535460668953 M604.8782461327309 107.86150154846547 C616.6823195534845 98.13421145970372, 623.0347126164136 94.35325920836272, 632.3735604640812 78.97567092038804 M607.9165570572758 106.16814025680361 C612.6272461918363 99.79702459894926, 621.1681704590056 89.66989756689848, 634.010773196888 76.87149623751753 M620.6621136959906 109.8312585565605 C620.2538242234557 104.41678234763589, 630.2376874669509 93.65112090875868, 630.6342727785807 90.7999827196158 M619.0470047086741 106.90533180230938 C623.8762056309043 100.48849846627158, 630.2454302471364 95.48446273607217, 635.2133815327536 88.95865540069411" stroke="#000000" stroke-width="1" fill="none"></path><path d="M0.6444696560502052 -1.2052328005433084 C132.80064328406013 4.308052801117302, 263.7931587699802 2.478287147507073, 629.5889767304066 -0.5042465582489968 M0.5712871842086316 0.6036689348518849 C138.88213301580404 -3.100949530377986, 276.5022859457881 -3.5835783765465044, 630.3672949843111 0.09618766978383064 M631.8473264314237 -3.705828759819269 C634.2439893078682 29.976517562133566, 630.2630235743401 62.16511617290476, 633.2822368480267 100.18822442119318 M629.4962141644212 1.753930764272809 C628.4560189730801 25.067029410662748, 629.7202950603642 55.92793575053413, 628.7456464301797 102.43216452685493 M628.9037055149677 102.5022463267048 C452.0620148500429 100.32641960737604, 270.9266855742783 101.03072682974238, -0.38520721048116685 104.1960761969288 M630.5786496929827 104.13266328846413 C415.438499798067 108.14023399082322, 199.34061598591512 107.29230210510391, 0.056089072674512866 103.60896040474373 M-2.4942003153264523 105.7899122101565 C-4.411218094515304 59.94214501821745, -2.663767385172347 17.874800036971763, -2.2256030701100826 -0.08579728379845619 M-0.754060136154294 104.09650102940697 C-0.5920902037993074 64.26195152569561, 1.5018863534554838 29.199452879528195, -1.2772452104836702 -1.9035552572458982" stroke="#000000" stroke-width="2" fill="none"></path></g><g transform="translate(251.66666666666674 334.3333333333334) rotate(0 91.66666666666669 44.16666666666663)"><path d="M2.1112006045877934 -2.2356159426271915 C60.42961461748929 2.240815691339473, 126.70973288454118 -2.144397087705632, 183.74344658230746 -3.4233587719500065 M0.3296272289007902 -0.564033729955554 C52.16778432112189 2.034532801248133, 100.15042497962718 2.4275128403678536, 183.74330064964795 1.5323258209973574 M185.69651722287142 1.2495318911969662 C179.20246530439087 23.511177082080376, 185.00141442681976 46.224631202407146, 184.3539847073456 92.19580827777577 M182.68208667946362 -0.3272289466112852 C181.97439684641242 19.752586967156564, 180.05397673618674 40.19454162909336, 184.62352410269284 87.13196108428133 M182.45021330689394 91.24653707568837 C122.45632542514555 86.52652519972366, 66.77106562567255 88.94280320436997, -0.13699516281485558 91.43982909743977 M181.89917841864133 88.24144623366487 C121.25642814083648 88.02807116291167, 60.129621390253305 89.52854555627944, -0.614835487678647 89.60950759736193 M3.0545398332178593 86.02562259261799 C-4.820577692147343 71.92551799941181, 0.10766677940264446 48.629517257523986, -0.7516691349446774 -3.820812914520502 M-1.0018246043473482 89.25785688248766 C-2.019468372532476 67.10678181781738, -0.25203371591244994 45.87802616537855, 0.4914583694189787 -0.8130497764796019" stroke="#000000" stroke-width="2" fill="none"></path></g><g><g transform="translate(333.33333333333337 424.3333333333333) rotate(0 -0.20541958428418639 83.65589903946972)"><path d="M-0.13699516281485558 3.106495764106512 C4.234697534143938 50.08834478035573, 2.5288635565899553 92.38042858345443, -1.850440866003396 166.03562381491076 M-0.614835487678647 1.2761742640286684 C1.0427919202794755 45.2157884233942, 0.9777018934178079 88.96723637341839, -2.8205220370242614 163.2474174667151" stroke="#000000" stroke-width="2" fill="none"></path></g><g transform="translate(333.33333333333337 424.3333333333333) rotate(0 -0.20541958428418639 83.65589903946972)"><path d="M-12.041333011714402 137.7622310435853 C-7.095863241843871 145.2736176301589, -5.6992901345178515 148.20057224360664, -3.0042962363610286 164.28304128162574 M-12.519173336578193 135.93190954350746 C-10.722119115815438 143.64706918275854, -7.939092002904695 151.25996532866426, -3.974377407381894 161.49483493343007" stroke="#000000" stroke-width="2" fill="none"></path></g><g transform="translate(333.33333333333337 424.3333333333333) rotate(0 -0.20541958428418639 83.65589903946972)"><path d="M8.462255225208336 138.61244971931725 C7.474976162497497 146.07937178412493, 2.9545611217419196 148.76096769403978, -3.0042962363610286 164.28304128162574 M7.984414900344545 136.7821282192394 C4.33258611535587 144.4358758737717, 1.683613203990869 151.82352423310226, -3.974377407381894 161.49483493343007" stroke="#000000" stroke-width="2" fill="none"></path></g></g><g transform="translate(41.66666666666663 604.3333333333335) rotate(0 315.0000000000001 51.66666666666663)"><path d="M0 0 C0 0, 0 0, 0 0 M0 0 C0 0, 0 0, 0 0 M2.9854985931049693 14.782766363441526 C6.005576619574751 7.7447871258344785, 5.060797469459042 5.978747891522434, 12.108008681190146 -0.21433937297316774 M0.5953996800910342 11.91813626778084 C1.81640305589061 9.900235811860105, 6.328754043817122 8.370268806471326, 9.291586020541322 0.24740844770220538 M-3.437937851790407 25.26231341221845 C4.820910784777931 15.786592440608887, 14.739272570628533 7.2801346046642905, 22.55814965283301 -1.7608863027602908 M0.2425936406663869 24.19798579411125 C8.300689030438516 15.943767186242752, 14.998490481836456 7.041357919403264, 21.73396516619053 -1.970241021907377 M3.7415814901608506 34.200745316037285 C11.544521682377862 23.815662732301462, 20.156400299901954 10.09358773086758, 32.33198337019125 1.8650951945468073 M-1.4998140522372445 38.79651821758722 C10.086035419043446 22.885799332935605, 22.75229627832704 10.519936288164548, 31.72874561273197 -1.0246951224968548 M-0.22869112156339355 50.15168336839311 C12.54242121296053 34.79217614025858, 23.090517742261255 15.93199139308945, 38.57962919082098 0.875113709676171 M0.7795618474482708 47.530750530444905 C12.825977797269212 37.23208633745741, 24.738135036123435 20.708198813402984, 43.05195814240329 0.6659355394869095 M-2.567925067516157 61.9700568760712 C18.43099213832454 38.3440854516855, 42.74660278599394 13.903772241739688, 53.67157051315969 2.8732952191903003 M1.9571940490136654 61.99493088712583 C14.266203649404577 44.830702615449574, 26.854009807631662 29.94367229375845, 52.67558761848575 1.782986413262666 M2.750613050740064 74.10374181563405 C17.912295430633957 50.02358056613408, 42.99850830146606 25.246498686304477, 61.94313448564489 2.4364219496516952 M1.9269424157401929 74.69851973684875 C17.6392992599755 54.143253488223834, 36.95773169104181 31.99991757058251, 65.24544702926059 0.36521482304916475 M2.7185003816427695 84.97327041364417 C21.693005943744573 58.95786415348183, 41.2941975750105 35.2268385487001, 76.06949200671407 2.7389323776228593 M-0.2435050640908969 86.00839940383241 C26.087328219441513 54.40596864643227, 53.81662746767806 25.039756663144217, 73.89367748800906 -2.003700031934841 M-2.9889012053610458 101.35154072688684 C17.54412878556824 68.4763677888963, 45.68681706328893 50.71767264362218, 85.44065772480474 1.177921229666282 M-2.156191306188859 97.09108366751835 C18.595578764713764 79.09722191934742, 34.03917730858185 56.74664001799099, 83.05124823301242 -2.0076570774706113 M0.2670861410996679 109.19643042036512 C33.418281414525914 64.5586932820358, 66.54577442173594 25.94821573840717, 96.5364900383544 2.9981394823444703 M2.6341411306611064 105.30783154056587 C24.215004359003473 80.80780382274315, 45.97919563663199 58.62935196038843, 97.26045662755192 1.5893666356606104 M11.902865964414943 102.8228925695277 C31.122155655940503 84.94318911880262, 54.12960140589948 58.55369399004163, 105.30169109580052 -1.0830056377800688 M14.871959754692782 107.94924307107992 C36.53917360894229 81.08677527753227, 56.27624672039268 55.733906668934516, 107.98742815990877 -1.8691840683224186 M27.302741094126702 105.09388978338754 C50.78403849425574 74.9184389044647, 76.20861277524615 48.18936924556481, 112.86474776659014 3.504258926077931 M23.22861573529184 106.98869346572971 C49.932207294438406 72.30485628103857, 77.13529440784933 42.47055445890278, 117.77855741437378 2.0097670900218176 M31.90750742867244 104.66823553850713 C54.07797625244744 78.67882169638409, 80.75929651058176 55.95300613011689, 124.53716775714173 -2.211766259964584 M34.82843768573952 104.89267442373398 C65.25172775177957 67.34874958536554, 97.95329395309335 31.83221480926794, 125.69724418720915 -0.1624104755334841 M46.372804616489674 105.927399561449 C69.66016848296803 79.66136881747879, 88.81669109120892 55.95082788455648, 138.25212543690233 3.4090043608776597 M46.844582344317104 107.11009951931149 C81.22529023455739 63.918688162939304, 117.32313965266371 25.466464857781673, 136.20003931270568 -0.8402967355468007 M54.944116056015886 102.60050782877562 C96.58489603387505 70.36588554196925, 132.1533544721058 25.130517200610626, 151.5636979543094 1.2246030151671903 M55.31153457430581 106.25980420168099 C87.57080743152304 69.97741900784156, 115.6233354577936 35.43434891288537, 148.57338077914457 -0.3757593657993539 M65.83176889568858 103.38934256704951 C88.74176902298049 82.66855079649045, 110.20068679537698 60.85710881295386, 161.36580620780046 1.6907181794664723 M65.9376073639869 104.31804579506124 C91.28980134661197 80.72064309438763, 117.20569832816822 51.798554030124315, 157.09003469980712 1.924255832927571 M79.58593403394526 105.59334225283317 C104.0077761085412 76.94101911735653, 132.70471147633398 47.250668872173776, 168.267214845813 -1.51430541966198 M78.91744182664162 104.80600349867098 C109.14293815311929 70.09084771445376, 141.73197056165003 31.146686025432714, 169.82159531297452 1.985224934852738 M85.47162611922343 104.73460161268909 C113.24401810149342 74.98659170253232, 139.12726923750546 42.01686947536398, 176.9665322667845 -1.8644668056556668 M87.74450720055123 106.97727838672895 C104.62408597917174 83.11143464485005, 127.71517021423132 59.896380180295736, 181.45098498192806 -0.8474541108051028 M101.84370354996058 108.18287162317978 C132.0293306649324 73.70554092494525, 163.14406700003832 33.59462708761215, 192.62721061915255 -2.361108751952088 M100.02360084899696 106.00539340845393 C129.4761667425375 74.82533588567824, 157.4840900925332 42.32028293240175, 192.08495419494903 -1.6209614798272014 M108.52186847459421 104.78055951086775 C137.45955034148454 76.95758584345904, 162.06632120325096 44.121772054169575, 205.25254580135453 -1.9079177819887292 M108.28334826026008 107.17129338806465 C131.45870798194198 81.91883024715847, 151.66987816093084 56.80019223144634, 200.0665815653186 -1.5875554729947936 M119.16566679156183 102.46772875231547 C156.09305786984203 64.62282145489849, 190.4417688778868 29.373896499364832, 210.060677461828 -1.685924169203119 M118.78870304762184 106.05084502477986 C155.8179630483446 68.20222140409618, 188.49445770225395 29.262233299655932, 212.78777383131802 1.9829274839108422 M128.99342912031042 106.66180865430823 C165.29480193332444 71.3914676746463, 195.89103669486587 33.513513333889094, 223.85958899901047 0.4714980629672567 M129.69738792037296 107.45704647304109 C158.06852836484023 73.3490394759208, 185.84084521644974 41.184419907128955, 223.50176585622862 -0.009427159891529868 M141.78150691725853 106.863756032963 C173.86098861439493 64.37450739415904, 210.80385240805418 25.543734392796296, 233.42210756133943 3.7036311410849123 M142.49663079977574 106.60868902162154 C176.7101783461423 64.57017981058532, 212.67425056042546 23.213472571640125, 234.1356206283316 1.6928879198168545 M154.3029183018531 106.81131269506501 C175.8074398006368 82.13336383616014, 196.0876366410106 51.902114414170434, 243.86090404725235 1.7474135417123193 M152.8793106451209 107.84611457496273 C179.25392153101964 73.30932433704754, 203.4467283666706 41.16818790685038, 244.10272926090818 -1.1076980777452832 M159.32658417253162 103.0851671171768 C199.51261199272847 65.58531828297266, 225.793827300745 33.73540598372482, 251.00349310518675 0.562439991411992 M162.18069356968965 105.7998773322834 C195.7240582528145 71.323865477011, 224.46098535981503 34.58850817199841, 253.11531099223964 0.12366592164082135 M173.33626917773168 103.48866402586086 C206.18666703434926 69.8822973040614, 234.58321821458185 25.872059616921064, 265.76723313358013 -0.044038533253541345 M171.53487381176333 104.33295336780233 C200.535855333834 73.73213577923389, 225.09288260120675 45.57328131585773, 265.99691318560724 -1.1582471328060535 M180.90558171589072 108.67280439767966 C206.00928804448827 75.28734812191708, 232.87565396680048 51.602982580369904, 278.53432628087006 3.207885194278134 M182.68727373462315 104.72824063073823 C204.72520960009365 77.04850347650108, 230.89178550273164 52.68648415822288, 275.4949113292923 -0.39124241686724304 M195.0729739354462 105.76124545919575 C223.2409588405888 72.0759212520413, 255.71929744721587 35.25975071760264, 283.5268184454939 -1.304225349430368 M192.80714382655032 107.8760589453099 C228.4993407562102 66.72366454988808, 263.24718780435444 27.424097971239775, 287.0930090365759 -1.7182032313238835 M201.71674173483572 105.97530068697161 C228.82675018324107 77.75832902339572, 259.8985134424121 50.88664188557643, 299.18159927588925 1.5198495621833672 M203.30006270082615 106.46165001073605 C226.16446835022427 83.25992819222722, 243.6810227152917 61.18019270336132, 297.8237380457394 0.20040899804268975 M211.9300247624967 106.2589398075697 C237.56355392910672 82.64875002821964, 254.86254938423252 62.35532894114977, 304.52540217049363 3.127985905681868 M214.62043709573186 107.15267740123542 C242.4670963685659 74.50604448832573, 271.81266016941595 42.92304671609239, 309.0809582200641 0.3740547204512552 M222.39580641686666 102.9037887975526 C256.65483148608956 67.5578303814025, 289.78783962162044 31.375815267382308, 315.54980427774444 -3.0592840923723656 M227.08400187454868 106.78672656602681 C254.51650249568343 77.1695237756316, 283.640842556041 45.255125878838065, 317.4323575478311 1.6696162601205629 M235.7619138463831 109.17412988348272 C270.1660006356646 74.40611501330827, 297.28705728072293 38.200846063556725, 329.58622649607923 -0.023771955416833634 M235.68032002555788 106.55880482932892 C264.59890996165103 74.09444741024012, 291.48070461043613 40.35499655371921, 327.43195214232173 -1.0011021837306373 M245.01601794948354 104.93190154192264 C275.54586411603583 75.53663194616007, 297.94415098744497 52.27715575251557, 337.6809334739355 -1.524632956889036 M246.88528266204074 104.20884139036055 C278.3879746692735 68.97640738334735, 309.5388947172809 35.543063972515455, 338.43258624181726 1.5061254631164047 M253.86063337460547 102.26169849943483 C278.94030713485427 84.81723187324434, 305.2253289342634 56.336864890666945, 348.3139745807603 2.2813434599963216 M257.4736090222785 104.20918732334042 C286.28359879120313 70.68786960192534, 319.1428020130558 36.229316286521495, 348.74237318060847 1.5101567301032333 M269.08811852018636 103.09577173258175 C294.3139654175611 77.0215356089667, 326.2018048300149 42.132177296066764, 362.398420022972 3.445895361356122 M267.33134646955233 105.95211557748725 C297.47651353857424 72.32926214232126, 326.5947257858229 36.90572889769024, 361.06143150495745 1.6731422810029812 M280.9556755346637 108.83902846792597 C307.8586895164432 69.62914210330618, 338.3983104405842 42.13526499508502, 369.7190066700178 2.382545803975745 M278.26837049214356 105.93732097701985 C308.17032612274033 71.66631749861878, 338.09210009673797 37.57749792679407, 371.3580307991552 -0.28371660474272176 M287.56035031647514 101.99403218202993 C310.54054756635134 86.64532749292792, 323.91499398566384 65.74183619674291, 379.93137417033506 -1.5272354855824233 M290.8308847033335 105.95942022115692 C321.46450387593836 71.3907066375142, 352.9753469745814 37.16020333570931, 382.3053278014828 -0.4115063529152394 M299.214032514058 103.78600260145618 C321.66626202828 81.33937323553245, 345.2903833367658 59.65361247313683, 390.28100592236126 -3.554322530755769 M299.1139208414032 107.29545188411726 C328.4593019188852 70.85370325980836, 356.66460517438105 39.90327982771113, 391.4378073752215 0.408608485704292 M306.8184555258498 107.78781570276719 C332.6939306222573 80.2503647725841, 358.38000502469185 50.685123792719054, 405.97822907453394 0.0030668950181222954 M311.5738387696341 106.89237641511959 C338.542287208934 70.55822445069325, 365.8073317011182 40.89150117371756, 401.96378250865257 -1.3471147646654629 M318.2401965002881 105.54500371252544 C339.8805564133879 84.32495074797518, 361.4745556764284 60.345320508969685, 416.5732145252906 1.4443712683017793 M321.84082647630737 107.55457613838263 C345.6603655667678 76.11914579545265, 372.22657990610423 49.58067312706679, 411.5778943150573 0.34250309519427447 M334.68567633581046 108.20075510729349 C357.40519101815886 84.17551556740997, 371.70886016643635 56.10553281290715, 424.33097692306876 -0.708314684342298 M333.5314000747043 106.1313552531252 C359.8440902900523 76.9713349082052, 387.6760383879178 44.383242381979905, 423.27361203271687 -0.768936860497746 M339.0761596808542 108.1209146136338 C374.6209479303061 63.855488161216186, 406.9362622346997 26.277973497095587, 436.6063746663059 3.9147600136484186 M343.06090380310604 107.704439833566 C372.92102556237563 73.41825141976132, 404.85999265929325 36.42414260673222, 434.1557330249126 0.9920883174772541 M352.422754933857 108.51898320810885 C384.6652137528995 70.05518159855109, 416.8853450403258 35.48510095545264, 446.2191099034396 -0.8439974111636559 M352.456010024794 105.77547782892377 C371.217654956672 82.84150156433805, 392.99631112609393 60.759792706325385, 446.25288277992576 1.4065234533379396 M365.5453552142658 109.83582769750396 C386.54212627408873 77.31542119478031, 412.2571500853643 49.984553858670814, 455.82872853290723 3.955476517784092 M363.51116019905885 105.20824864364008 C392.2113947013023 72.95412160055679, 421.83541328927623 36.4353004090066, 455.33001491103755 -1.449764753696826 M374.071874478499 104.34584239793607 C406.24649126126127 76.74906998661669, 433.36791700288995 34.55304922873022, 466.3096202031463 1.9759015270540772 M373.2253009971628 107.39732481648811 C394.65492682231115 76.84377571475237, 417.1611187470936 51.49205275098604, 465.7009111565292 -1.0184877294083776 M386.8768933460037 106.31020661619041 C409.52113110686867 70.97269814591633, 440.392634231132 41.52752916807957, 477.1260183125944 3.227653593208828 M384.6780301283966 104.98382950190936 C406.38449536288624 77.49987540924275, 430.7064112145214 48.31963089189233, 479.0406813796819 1.9285649754220628 M397.0808952152174 106.58304632882957 C415.6545333434246 84.0564349539551, 434.7675235151485 58.98454533948224, 490.70700000968895 -2.3062350571891557 M394.4663324560415 107.02409814912264 C427.1902609415244 68.7830791979188, 456.91397897499166 36.585529953400396, 489.19826356877707 1.4770256850132455 M409.7692072345776 106.99114376241593 C429.20714684735856 79.80332208690753, 452.4037249720582 53.71446161164947, 496.8214861928675 0.9549240524226263 M406.86102096837885 105.9318880823466 C426.1039412397108 79.78479287161221, 446.47970416827445 51.79665483561153, 499.00892383709584 -1.2425514014160797 M418.3670003025218 109.95893739351212 C443.8209630915773 78.60718935277109, 465.0027049252076 52.96328438765648, 508.9532415105675 -0.18552435139332601 M414.6192367786898 105.66587850080012 C434.6144858342173 85.54542106436273, 453.93815950431997 63.17150957011701, 507.1067564229195 0.13280979035283735 M425.0142890674875 104.13352194868051 C444.18095529052096 80.98762531276034, 466.7774124097273 57.078942087558744, 516.6758743612265 -2.076579292074541 M425.7969491252557 107.91717047870182 C459.9482183570937 67.87746947996393, 491.55781690836585 32.67269322589247, 520.7371836895293 1.3860072095387181 M440.9409319279121 110.00964840448376 C464.30100537549544 66.39838499034614, 501.74662658206796 35.35521696207648, 530.027836893282 1.405416456941623 M436.5614553713577 104.2967869652706 C470.0367502727611 65.09750142262837, 504.1744600919128 28.306845038170337, 530.5694561252064 -2.092639319639545 M450.8416310322333 109.55472398748418 C473.7104693371657 71.55974023686193, 499.6760517177995 41.172265293116126, 539.8874250051716 0.4817763722174391 M450.0038810052771 106.52317278472503 C481.0728614580988 65.77077935210325, 514.8681839406537 27.099008506928755, 539.5091523432324 0.88211190203657 M461.2509322788884 107.8338121742444 C486.76981080084306 76.43547386790802, 508.4058296912307 49.87789498569126, 554.3477783453326 3.096470180315521 M456.9516796402951 106.60969463628399 C490.9513012321795 69.5249940355792, 521.7688297205584 32.75715930928992, 549.510679081888 -0.5220755512140727 M472.918225316315 102.63463269132691 C494.58834488914124 77.88207401966297, 514.023678110904 55.96211959686694, 559.0918803122025 0.541123857798425 M470.78113301469295 107.05214109416622 C489.59089656359583 82.52580090492191, 512.495753622914 57.508704849253654, 562.3897712044549 1.0323837698273337 M481.18274354295056 106.09256151529416 C505.106099424504 75.55766062844178, 529.9551719563265 48.001608919963225, 569.767558054219 1.0800196312285948 M480.22985099175196 105.01622260759041 C516.8796761878579 61.77770886171453, 553.9719081457325 20.838121011818473, 574.6359916992141 1.2404971893794823 M488.3485641072326 106.31563087270865 C511.8666194478796 84.0539971387706, 530.8538232287718 65.91231719399138, 583.7064234408289 4.329805557391239 M492.20927155975335 106.52507150077531 C510.56890234776176 80.35414396666208, 530.7854556841421 58.22333333085316, 581.5691726504564 1.096903486883832 M504.05960790759866 105.00952924013299 C538.5624288122847 64.08167442700697, 567.6143256730408 30.078123734116673, 594.9231091784508 -0.13434279759655965 M500.61716083197837 106.6467419729398 C521.1077867042719 81.6306956145322, 540.4732703036578 58.884170343228554, 594.7761513544441 2.064534576113715 M509.6746395924863 103.10260134412951 C535.8279891010848 79.32334620877332, 552.5643275328077 49.985073480436675, 606.5539146365318 1.3745351230503502 M513.1501130467084 107.68171009830243 C542.9103972366636 68.35925029872658, 573.4783374454568 33.820384585871906, 602.9869161454681 -1.2096270134894667 M522.6422675603328 106.3708481612608 C552.3546516026701 66.5322660575871, 587.1641909098291 29.58822492177461, 613.8560419635091 -2.7386534541054175 M524.1160505672244 107.35037382608206 C547.8240975413731 76.94194445717025, 571.3591695211792 51.51921024589564, 613.5113425118093 -1.7258864577068493 M536.8759439595758 103.06292691808937 C572.3871924096401 63.36815299584805, 609.7334595149746 29.242690397996412, 627.9265370578205 -2.9713450525014764 M533.2467238818078 104.98055298049746 C558.8814178073012 76.10190846531634, 587.4365581523991 43.97308595694545, 624.3956340667492 0.8103729426802033 M547.1289646886528 109.52515109117775 C560.2863266946644 83.58574344996997, 585.7981119806946 54.20813444573235, 629.4530534519413 3.9205183753159076 M542.5102116037399 105.69498926076739 C576.7566428216863 66.76308298590794, 613.6331391379906 29.2461686861229, 632.6105864326069 5.1950280827816755 M553.3694693960013 107.82649040708836 C584.1140409719225 69.1874876688173, 610.5433886922583 38.08953239588266, 633.0888523123849 12.547489447691248 M554.9234204713018 106.59884624111052 C581.496076995939 70.95490637725675, 614.1701109650234 34.91392792100976, 634.8640872407395 16.91271605359833 M569.1554414800587 107.3835708423837 C587.4903306384103 80.16644346043925, 615.1391499673304 52.98739704296214, 635.5732191354753 24.398585428513854 M563.3645853477749 104.96720937074562 C591.3166603574853 73.56514346516299, 618.231781997249 43.35399303964206, 634.1590328273148 28.211304216675728 M578.0097080892626 106.5856746236264 C588.2540942093341 85.80761539633036, 605.3279968343603 68.64304615531228, 635.1125748196494 37.61699479434628 M577.3857692214403 104.43258597389155 C590.0246193719646 91.61789968613571, 601.4806012640064 74.13097853154724, 635.6119393056135 38.440096771232675 M589.13888109306 107.17444980760158 C606.233316175465 90.69657532307235, 621.7047113819827 64.86875740117571, 635.628184013345 47.56856227175092 M587.3693041765889 107.92711482998968 C600.0190956518105 88.97205965814133, 614.2464939842941 71.51176573223367, 633.1381509139172 51.18081979148781 M596.4325931978696 104.85007196042622 C604.480312284988 97.22872414513677, 615.7042002453941 83.3110438867704, 630.4750960860092 61.22149841751309 M597.964527509483 104.85122785281325 C610.121701504249 91.25175554714289, 624.9175524722915 75.62956297271975, 633.6082809865165 63.189830806882696 M606.9021437731379 107.42450163888572 C611.5230816830598 93.2022899070469, 625.5662060394628 87.44907977478715, 633.4413812440604 79.75254129774981 M608.9639275544131 107.7894075718039 C615.7526040832636 96.28795708963582, 628.4812806949413 82.58111173129332, 634.2849480696738 75.56678048119062 M615.6797349673028 109.42764606954239 C625.4047041075911 102.24491391304937, 627.7617536732437 95.74114202189006, 635.1867763569455 84.70021396924625 M616.7398797996606 107.67884881118022 C621.351882316291 100.06110608621437, 625.0554424051876 97.55147086106503, 631.6989217476796 86.47037009385298" stroke="#000000" stroke-width="1" fill="none"></path><path d="M0.6051179990172386 0.050930561125278474 C222.93840924110273 0.9470229337364438, 442.8287424143405 1.1693674752861265, 628.6835212334993 1.0534622326493264 M0.37161975577473644 -0.7427689976990224 C207.91785556096593 -5.132743941769006, 415.2586783107372 -4.9242182602733395, 629.9615628071132 0.5982621483504772 M630.4437665008011 -2.9472398422658443 C626.8075821993875 38.473956327574946, 626.5911888478327 67.98258917344113, 628.008575703949 103.29113864277798 M629.8389994669708 0.3432701360434294 C630.4792929831274 38.72399982903152, 627.9161897245176 78.48517500236629, 630.3503122497352 105.25594029140967 M630.9337071523073 102.31128234614927 C497.92188856694867 106.62131454152363, 367.72990488149236 106.49264284772175, -0.07160848528146745 102.72014031161862 M629.6029497213664 103.71933339958387 C419.57302607428295 107.34459592891236, 208.32582413740462 107.9140057046463, -0.02254759594798088 102.93832932834822 M-3.042873714119196 100.77627908562619 C1.3863131569698453 74.18178123887627, 3.954564885981381 39.756018896276736, -1.397566769272089 2.054480466991663 M-1.1387631129473448 102.09910825205344 C-2.765876981181403 60.740291948430226, -1.0861099089806276 19.89119358609119, -1.3246205877512693 -0.760391341522336" stroke="#000000" stroke-width="2" fill="none"></path></g><g><g transform="translate(328.33333333333337 242.66666666666669) rotate(0 3.1726752184331417 46.427442136841535)"><path d="M1.1443676017224789 -0.23149725422263145 C2.38777468673264 31.760731260633733, 5.337058380184074 70.8965520058138, 5.2009828351438046 90.97576855992281 M1.4901980925351381 1.3521247636526823 C1.1978189358177282 21.9721836822418, 1.5127417933816707 47.55004833039519, 3.912468211725354 93.0863815279057" stroke="#000000" stroke-width="2" fill="none"></path></g><g transform="translate(328.33333333333337 242.66666666666669) rotate(0 3.1726752184331417 46.427442136841535)"><path d="M-6.473595840745661 65.15923216242248 C-2.104283521149995 72.07693823213981, 3.330199520118014 86.23390134536858, 4.113451046869159 90.72881675449514 M-6.127765349933002 66.7428541802978 C-4.461666824733653 70.91438675215083, -2.5156343470580014 80.09789051385366, 2.8249364234507084 92.83942972247803" stroke="#000000" stroke-width="2" fill="none"></path></g><g transform="translate(328.33333333333337 242.66666666666669) rotate(0 3.1726752184331417 46.427442136841535)"><path d="M14.026434737296883 64.22716527364247 C10.585225471470109 71.7998821981112, 8.21828506624114 86.31154958615312, 4.113451046869159 90.72881675449514 M14.372265228109542 65.81078729151778 C10.913410797209762 70.38515645983281, 7.73913900419338 79.80146309726904, 2.8249364234507084 92.83942972247803" stroke="#000000" stroke-width="2" fill="none"></path></g></g><g transform="translate(15 70) rotate(0 13 23)"><text x="0" y="32" font-family="Virgil, Segoe UI Emoji" font-size="36px" fill="#000000" text-anchor="start" style="white-space: pre;" direction="ltr">B</text></g><g transform="translate(10 541.6666666666667) rotate(0 18 23)"><text x="0" y="32" font-family="Virgil, Segoe UI Emoji" font-size="36px" fill="#000000" text-anchor="start" style="white-space: pre;" direction="ltr">B'</text></g><g transform="translate(332.8333333333334 355.50000000000006) rotate(0 10.5 23)"><text x="10.5" y="32" font-family="Virgil, Segoe UI Emoji" font-size="36px" fill="#000000" text-anchor="middle" style="white-space: pre;" direction="ltr">F</text></g><g><g transform="translate(816.6666666666667 59.333333333333314) rotate(0 3.399188675121991 353.9745993627857)"><path d="M0.9471632584929467 -1.0823492869734765 C8.00309487711641 251.9286936397416, 8.82459922128673 500.8580415618047, 5.179179265598532 707.4289963697394 M-0.4980620078742504 -0.3511820979416371 C1.2356125463421428 262.76705890610197, 4.251806763125019 526.798727431881, 6.589085887620922 709.0315480125447" stroke="#000000" stroke-width="2" fill="none"></path></g></g><g transform="translate(840.0000000000002 10) rotate(0 12 23)"><text x="0" y="32" font-family="Virgil, Segoe UI Emoji" font-size="36px" fill="#000000" text-anchor="start" style="white-space: pre;" direction="ltr">K</text></g><g><g transform="translate(823.3333333333335 513.3333333333335) rotate(359.41207973862976 -222.90164342115747 -0.26446183009079505)"><path d="M-0.47349914645358837 -0.9846895328459155 C-144.1577366868732 4.418379444793872, -289.3462649809598 0.23941640549322796, -445.1159139418079 -2.7269952783916915 M-0.25179993426241987 -0.27307052482188343 C-119.98701217991433 3.628408580983673, -238.70888650535426 2.949355883786788, -445.55148690805254 -2.4973773428750645" stroke="#000000" stroke-width="2" fill="none"></path></g><g transform="translate(823.3333333333335 513.3333333333335) rotate(359.41207973862976 -222.90164342115747 -0.26446183009079505)"><path d="M-418.10906674223077 -14.147140713573048 C-425.60600319887294 -5.011482654720043, -436.278514592271 -8.356288428086236, -443.47336927295146 -1.6810133786452424 M-417.6563424735708 -12.693968229160259 C-426.14024431883604 -7.6618929115877386, -432.3674947333741 -4.760165097503003, -444.36283771373746 -1.2121185598475348" stroke="#000000" stroke-width="2" fill="none"></path></g><g transform="translate(823.3333333333335 513.3333333333335) rotate(359.41207973862976 -222.90164342115747 -0.26446183009079505)"><path d="M-418.5597828330298 6.369117653666688 C-426.07745217986593 8.853543754899707, -436.60401245155396 -1.1348475995445764, -443.47336927295146 -1.6810133786452424 M-418.1070585643698 7.822290138079477 C-426.1692428970355 7.355950306655675, -432.2758713492036 4.767056873212176, -444.36283771373746 -1.2121185598475348" stroke="#000000" stroke-width="2" fill="none"></path></g></g><g transform="translate(295.0000000000001 473.3333333333334) rotate(0 36.66666666666663 36.66666666666663)"><path d="M49.96699962354042 3.1444999962988334 C57.005925667753054 5.310524135932294, 64.20953580452354 11.475609920192682, 68.35205214979509 17.166373614886417 C72.49456849506663 22.857137309580153, 75.29950560368859 30.271966307426794, 74.8220976951697 37.289082164461256 C74.34468978665082 44.30619802149572, 70.5490877041391 53.60131836401332, 65.48760469868176 59.269068757093194 C60.42612169322443 64.93681915017306, 51.714496028091666 69.3315296086183, 44.4531996624257 71.29558452294046 C37.19190329675974 73.25963943726262, 28.59705536948593 73.74251003575334, 21.919826504686004 71.05339824302615 C15.242597639886078 68.36428645029896, 7.652112485964768 61.642039774059626, 4.389826473626158 55.160913766577345 C1.1275404612875488 48.67978775909506, 0.912518807047136 39.47943702537402, 2.346110430654349 32.16664219813246 C3.779702054261562 24.853847370890897, 8.182327797809686 16.65038981728973, 12.991376215269437 11.284144803127973 C17.80042463272919 5.917899788966213, 23.28203577057652 0.7831949901114464, 31.200400935412855 -0.03082788683810378 C39.11876610024919 -0.844850763787654, 54.60468437730963 3.561560317613621, 60.50156720428744 6.400007541430671 C66.39845003126526 9.238454765247722, 66.9287134593764 16.24221158056095, 66.58169789727972 16.9998554560642 M41.53331696969974 -1.5322463695978783 C48.998309802802076 -1.44847317591404, 59.93159661557916 4.648557870170385, 64.90792598615833 10.787381333230059 C69.8842553567375 16.92620479628973, 70.46651031541006 27.795179810493345, 71.39129319317476 35.300694408760165 C72.31607607093946 42.806209007026986, 73.85971883090201 50.10933755106465, 70.45662325274655 55.82046892283098 C67.0535276745911 61.53160029459732, 58.63731472639901 67.31762832846701, 50.972719724242026 69.56748263935818 C43.30812472208504 71.81733695024934, 31.418097465737944 71.37348976733651, 24.46905323980465 69.31959478817797 C17.52000901387136 67.26569980901942, 13.558601708243906 62.89786295783779, 9.27845436864228 57.244112764406964 C4.998307029040653 51.59036257097614, -0.5644485265222539 42.466770238091435, -1.2118307978051064 35.39709362759303 C-1.859213069087959 28.32741701709463, 0.9478000620781257 20.360348008756347, 5.394160740945164 14.826053101416552 C9.840521419812202 9.291758194076756, 19.02640769311179 4.804977968722344, 25.466333275397123 2.191324183554265 C31.906258857682456 -0.4223296016138147, 41.34506279531207 -0.9748375000788639, 44.03371423465716 -0.8558696095919274 C46.722365674002255 -0.7369017191049908, 42.22492683186666 1.5749959259062873, 41.598241911467696 2.905131526475884" stroke="#000000" stroke-width="2" fill="none"></path></g><g><g transform="translate(301.66666666666674 509.3333333333334) rotate(0 30.58756352805841 0.9859390472993255)"><path d="M0.0418192483484745 2.6569370292127132 C17.389604587573544 -2.689124742988497, 39.636960391886504 2.990310152526945, 60.540933563063504 3.737355973571539 M1.7207870613783598 0.11223979480564594 C17.20536048229162 0.9177200381644068, 29.01489842652031 -0.09537253929302114, 61.13330780776835 -1.765477878972888" stroke="#000000" stroke-width="2" fill="none"></path></g></g></svg>