<svg version="1.1" xmlns="http://www.w3.org/2000/svg" viewBox="0 0 720.5 569.444592183663">
  <!-- svg-source:excalidraw -->
  <defs>
    <style>
      @font-face {
        font-family: "Virgil";
        src: url("https://excalidraw.com/FG_Virgil.woff2");
      }
      @font-face {
        font-family: "Cascadia";
        src: url("https://excalidraw.com/Cascadia.woff2");
      }
    </style>
  </defs>
  <g transform="translate(65.5 51) rotate(0 278 32.5)"><path d="M0.2920195236802101 0.07442756742238998 C162.9916330639273 -1.3498224806487558, 327.99990291520953 -0.9052335810363289, 554.5536240711808 -0.41246003061532976 M0.3447332434356213 0.6183938808739186 C184.92073398269713 0.5763136882185932, 370.9741814687848 0.393165280282497, 556.5579613499343 0.5523226805031299 M552.9056427814066 0.2827012799680233 C553.4043698248454 25.901574262883514, 551.8677056965419 48.078335276804864, 557.0133017636836 66.08943476900458 M555.0023142825812 0.7127344775944948 C557.6786204374396 13.651402216870338, 559.245800653752 28.179442591033876, 556.1467870604247 66.55819375999272 M556.387232555449 65.90268407911063 C400.1896994318813 63.29991777548194, 245.21146715059876 62.962661582320926, 0.8647337093949319 65.76088620275259 M556.3127936892212 64.66417239382864 C419.62383830957117 61.06062743008137, 282.0999761611223 61.27560371696949, -0.6961110778152944 64.6221627779305 M-2.5917906425893307 68.67389157041907 C-1.6435117525048555 50.57933063665405, -2.3768082660622896 27.590265155769877, -1.675591316074133 -2.468418214470148 M-1.7799309957772493 65.95090283639729 C1.5212295101024211 45.656676314305514, 0.9607127354480326 31.101846841163933, -1.6552679408341646 -1.4387720059603453" stroke="#000000" stroke-width="2" fill="none"></path></g><g><g transform="translate(329.5 51) rotate(0 -0.45628848299384117 33.044232717715204)"><path d="M-2.26723238453269 -1.5744337774813175 C0.7589940384961664 21.354020910989494, -3.3640729828737674 42.602814802341165, 1.3546554185450077 67.57170858606696 M-1.7724408376961946 -1.4916764330118895 C-0.1184330719895661 16.930850163195284, 1.9895682197622955 39.14160193335265, 0.9202764164656401 67.66289921291173" stroke="#000000" stroke-width="2" fill="none"></path></g></g><g><g transform="translate(183.5 121) rotate(0 164.7697363154815 148.30721049662682)"><path d="M0.5071271993219852 -0.4629615284502506 C-5.144897032659501 31.863363834675404, -0.4789535150304438 64.36860857738183, -2.054841961711645 109.7236662171781 M-0.7130979169160128 -1.94954745285213 C-0.8966319649852812 42.11420732872561, -1.7485581584647298 80.14461723217741, -0.19209353812038898 106.45282139070332 M-3.1882699904976977 110.07652196183253 C99.60432525474519 130.78470119441343, 196.7244203225212 158.4737551236846, 324.77756218422326 190.66191474348395 M0.3231824625295032 109.23108092164308 C109.08032484230533 136.18674925283685, 218.4474062336443 162.79288862932418, 325.0970636549779 192.32459506300611 M323.39608446136117 194.39303436502814 C329.2379211546373 231.22140601535799, 327.2264790801303 269.8340435589431, 329.5884428320171 298.5639684461057 M325.4588613640517 190.69690413959324 C327.1511177553618 218.26673356699095, 330.1091655402089 246.40129306283117, 332.7277426214607 295.70410467870533" stroke="#000000" stroke-width="2" fill="none"></path></g><g transform="translate(183.5 121) rotate(0 164.7697363154815 148.30721049662682)"><path d="M321.2677565871275 267.7313594205913 C320.4786358684778 275.6382810205796, 329.0950327746079 283.6220426947912, 331.6729006597491 297.42777089588344 M320.0475314708895 266.2447734961894 C326.18312079097865 280.1330586173404, 330.2236765021322 287.79457148821706, 333.53564908334033 294.15692606940866" stroke="#000000" stroke-width="2" fill="none"></path></g><g transform="translate(183.5 121) rotate(0 164.7697363154815 148.30721049662682)"><path d="M341.75047735454984 266.47511408243184 C334.70701946254854 274.60350955200107, 337.08332019589494 282.9699885329483, 331.6729006597491 297.42777089588344 M340.53025223831185 264.98852815802996 C338.91546047450123 279.0452577658508, 335.2279013071502 287.18075104192457, 333.53564908334033 294.15692606940866" stroke="#000000" stroke-width="2" fill="none"></path></g></g><g><g transform="translate(170.5719137322435 122.5) rotate(0 159.49229048337367 149.14848121628168)"><path d="M314.03947882551955 -1.0311500765383244 C319.5386898679546 26.723000043304, 317.3839596019061 58.023986475215594, 321.72485866128557 104.45511832460761 M319.05032202240335 1.380806701257825 C318.025887002972 23.026902728014452, 318.1338547375942 47.16177216754185, 318.7742398969 107.13674266822636 M319.32444689930935 108.74351685489565 C191.89579940584179 146.4123484230474, 70.16548091577057 174.74047803942565, -0.027146714546392503 192.55412959502468 M318.7330684109245 109.06343523881321 C215.91687049553687 138.66688605830143, 111.73632384450767 166.76352699172097, -0.229920819309422 191.20080183320616 M1.1618342734873295 193.90221550688148 C-1.885177815688614 235.003108342744, 0.02669696019621881 273.47104698336454, 4.244240553902728 299.32811250910163 M-2.7402776945382357 191.05540694482625 C-0.5796848609310781 214.0251049988619, 1.5703205051434745 234.46868887335947, 7.760324369969112 296.2099978495389" stroke="#000000" stroke-width="2" fill="none"></path></g><g transform="translate(170.5719137322435 122.5) rotate(0 159.49229048337367 149.14848121628168)"><path d="M-8.887733944019383 268.15730289466285 C-0.45194154261299113 274.8332010438447, 0.5352414360662676 285.02803131405267, 10.852293774338705 292.66511617414653 M-3.876890747135585 270.569259672459 C-1.60655743290189 274.19651289779705, 1.218722958761937 280.07752845516046, 7.901675009953124 295.3467405177653" stroke="#000000" stroke-width="2" fill="none"></path></g><g transform="translate(170.5719137322435 122.5) rotate(0 159.49229048337367 149.14848121628168)"><path d="M11.530316837486305 266.10225917987367 C14.6495765677771 273.2665183275343, 10.315016032522937 283.99697345620984, 10.852293774338705 292.66511617414653 M16.5411600343701 268.5142159576698 C14.194279898170818 272.2066496946037, 12.41700131332354 278.5509053524959, 7.901675009953124 295.3467405177653" stroke="#000000" stroke-width="2" fill="none"></path></g></g><g transform="translate(152.5 155) rotate(0 28 27.5)"><path d="M19.75905451740187 -0.037850041124812606 C24.81328054620459 -2.5858462429495273, 30.802701575341594 -1.627876751373782, 35.87390743810861 0.8708738902446491 C40.945113300875626 3.36962453186308, 46.66636248654127 9.60336559404826, 50.18628969400396 14.954653808585775 C53.706216901466654 20.30594202312329, 57.88583268659719 27.265725845816522, 56.99347068288476 32.97860317746975 C56.101108679172334 38.69148050912298, 49.884860271966765 45.53827347752662, 44.83211767172938 49.231917798505144 C39.77937507149199 52.925562119483665, 32.59719988151828 54.94371867024013, 26.677015081460436 55.14046910334088 C20.756830281402596 55.33721953644162, 13.95157667260301 53.9291175574826, 9.311008871382345 50.4124203971096 C4.67044107016168 46.8957232367366, -0.30566025467126023 40.02804812605525, -1.166391725863555 34.040286141102904 C-2.02712319705585 28.052524156150554, -1.5351175239106176 19.692760179042423, 4.146620044228577 14.485848487395494 C9.828357612367771 9.278936795748564, 25.65568051211812 3.7505792370575475, 32.92403368297161 2.7988159912213213 C40.1923868538251 1.8470527453850951, 47.42794731431821 8.589610317286553, 47.75673906934952 8.775269012378136 M34.870189556667576 3.1241354835861763 C39.89086267363818 3.4513408730668687, 46.75868460768502 5.538886419052161, 49.93376838989653 10.021431278092074 C53.10885217210804 14.503976137131986, 53.922583272463214 24.230262971353827, 53.92069224993662 30.01940463782565 C53.91880122741003 35.80854630429748, 53.32908413358149 40.945675350343876, 49.92242225473697 44.75628127692302 C46.515760375892455 48.56688720350216, 39.427248481697085 51.677469008354734, 33.48072097686951 52.883040197300495 C27.534193472041938 54.08861138624626, 19.398916878962112 55.20623327008808, 14.24325722577153 51.98970841059757 C9.087597572580947 48.77318355110707, 4.139411550696992 39.87069716008245, 2.546763057726011 33.58389104035747 C0.9541145647550298 27.297084920632493, 2.314477496282107 19.60302516980452, 4.687366267945642 14.268871692247696 C7.060255039609176 8.934718214690871, 11.499307841055366 4.286108794198395, 16.784095687707218 1.5789701750165293 C22.06888353435907 -1.1281684441653366, 33.575892490343385 -1.6052090196932483, 36.39609334785676 -1.9739600228434995 C39.21629420537014 -2.3427110259937507, 34.542217802826926 -1.3027409771050205, 33.705300832787486 -0.6335358438849781" stroke="#000000" stroke-width="2" fill="none"></path></g><g><g transform="translate(153.5 182) rotate(0 28.24671366158873 1.121314070187509)"><path d="M-1.0548419617116451 1.7236662171781063 C18.455132574308664 -2.8707388314045965, 27.736200196761644 -0.47783174175769083, 52.10090509429574 3.7898067496716976 M0.807906461879611 -1.5471786092966795 C20.816812167670577 0.2545594440586867, 43.04705824589357 -0.14473228503018598, 57.5482692848891 1.5066508818417788" stroke="#000000" stroke-width="2" fill="none"></path></g></g><g><g transform="translate(486.5 200) rotate(0 -54.68165660556406 -0.21986017257864887)"><path d="M3.0919694043695927 -3.5448816753923893 C-32.853703831471506 -0.18803170647472145, -63.63452262679115 4.292263591680676, -110.23838659748435 2.84055283293128 M0.14135063998401165 -0.8632573317736387 C-24.631963533647358 -3.146756263785064, -51.134412756394596 -0.7753710253722965, -112.45528261549771 -0.9471326898783445" stroke="#000000" stroke-width="2" fill="none"></path></g><g transform="translate(486.5 200) rotate(0 -54.68165660556406 -0.21986017257864887)"><path d="M-81.24750113969222 -14.95629224593214 C-94.80881850411936 -9.829662619241994, -103.15536484079594 -2.8480276277888015, -109.69366921298206 0.8934201430529356 M-84.1981199040778 -12.27466790231339 C-89.10465091110345 -11.03830814199318, -95.81677947981305 -6.460374209554717, -111.91056523099542 -2.894265379756689" stroke="#000000" stroke-width="2" fill="none"></path></g><g transform="translate(486.5 200) rotate(0 -54.68165660556406 -0.21986017257864887)"><path d="M-81.09904344402109 5.564379348789981 C-94.591366768445 5.268824430809062, -102.97714939252143 6.826995420017648, -109.69366921298206 0.8934201430529356 M-84.04966220840667 8.246003692408731 C-89.15659321088194 4.695775375645173, -95.90333394320633 4.489418136711148, -111.91056523099542 -2.894265379756689" stroke="#000000" stroke-width="2" fill="none"></path></g></g><g transform="translate(265.5 153) rotate(0 54.5 30.5)"><path d="M-2.983352866023779 -1.4261958338320255 C33.49789553610608 4.72176726276055, 77.55559428613633 3.7725133460201326, 106.32579842582345 1.615812923759222 M1.705337954685092 -1.6315893959254026 C25.8161458642222 1.447601373475045, 49.08047054316849 -1.0061821982450783, 110.95792688243091 -0.9114581774920225 M109.95916691794991 3.9462963603436947 C113.10637818181887 15.550632682722066, 112.55115555131808 29.656094340793796, 107.38224414363503 58.30705740675331 M110.61808742396533 -1.301957769319415 C110.88481379283593 20.857241254393013, 110.6394043637626 38.47501457314939, 110.54549439065158 59.55973114259542 M105.31892684474587 59.917722728103406 C69.4319942635484 58.78826592838392, 33.187185858376324 61.36608873283491, 0.19540754333138466 61.51752414926887 M110.80619509331882 59.84334959276021 C82.69082162892445 59.301101997960366, 56.491049894876774 59.63108231173829, -0.7544827330857515 61.36399121768773 M-2.9874471090734005 61.940597917884595 C3.0220434767566617 44.81825365545229, -3.457594742123038 37.330579650588334, 1.8108208514750004 2.133321549743414 M1.2947464119642973 59.704051928594716 C-1.1103947439603508 39.04831142267213, -1.0551564374379814 20.770700875855987, -1.8876221645623446 -1.4095055889338255" stroke="#000000" stroke-width="2" fill="none"></path></g><g><g transform="translate(673.5 174) rotate(0 -148.07330231549014 -0.049607471843785333)"><path d="M-2.891633896139769 2.068967274745806 C-60.330564069377374 0.2276469288551719, -126.71835287704673 0.4837319753340721, -297.29482698842725 2.209655990276539 M1.1482223574470192 0.3757407549376317 C-75.33768870520589 -4.499892985198762, -150.0565832975778 -3.218145204442667, -295.7399003891806 2.528575791100796" stroke="#000000" stroke-width="2" fill="none"></path></g><g transform="translate(673.5 174) rotate(0 -148.07330231549014 -0.049607471843785333)"><path d="M-271.81783674095914 -5.90583844410323 C-271.20533717948757 -4.680931549736893, -282.5219318437076 -2.5331185456922505, -298.83425760777396 2.8112770710688193 M-266.3704725503658 -8.188994311933149 C-274.3281201613518 -8.213908213912076, -280.0604172745953 -4.295436958995111, -296.7375861065994 3.241310268695291" stroke="#000000" stroke-width="2" fill="none"></path></g><g transform="translate(673.5 174) rotate(0 -148.07330231549014 -0.049607471843785333)"><path d="M-271.11196120605626 14.60322643255716 C-270.3427392864397 11.487935486707643, -281.8085404799109 9.300584234271845, -298.83425760777396 2.8112770710688193 M-265.6645970154629 12.32007056472724 C-274.1532885428713 7.016150240504205, -280.06688070504435 5.667132063552967, -296.7375861065994 3.241310268695291" stroke="#000000" stroke-width="2" fill="none"></path></g></g><g transform="translate(20.5 10) rotate(0 13 23)"><text x="0" y="32" font-family="Virgil, Segoe UI Emoji" font-size="36px" fill="#000000" text-anchor="start" style="white-space: pre;" direction="ltr">B</text></g><g transform="translate(686.5 14) rotate(0 12 23)"><text x="0" y="32" font-family="Virgil, Segoe UI Emoji" font-size="36px" fill="#000000" text-anchor="start" style="white-space: pre;" direction="ltr">K</text></g><g><g transform="translate(673.5 54) rotate(0 0.2011794782393963 206.27302011901108)"><path d="M-1.6937948955466335 0.15474554201341015 C-3.918261690827422 144.26440825526927, -4.720534131665142 286.49041822790144, 0.6669982805828426 412.13470454494075 M-0.5461150268526254 0.3901378977112525 C4.655578398156095 83.65859560328349, 5.536188368107125 167.79648654083098, 0.1926838825951489 412.39129469600874" stroke="#000000" stroke-width="2" fill="none"></path></g></g><g transform="translate(309.5 160.5) rotate(0 10.5 23)"><text x="10.5" y="32" font-family="Virgil, Segoe UI Emoji" font-size="36px" fill="#000000" text-anchor="middle" style="white-space: pre;" direction="ltr">F</text></g><g><g transform="translate(264.5 184) rotate(0 -26.9248840874061 0.5505835674703121)"><path d="M-3.2631787918508053 3.096538569778204 C-15.568344964273276 2.010317264534533, -37.057558835670356 4.836736260391772, -55.822916354984045 -1.9953714348375797 M1.9731481801718473 1.8358050752431154 C-17.977596029080452 1.8171688278391958, -36.67777757048607 -0.5499028603360057, -55.34647129662335 0.4840406943112612" stroke="#000000" stroke-width="2" fill="none"></path></g><g transform="translate(264.5 184) rotate(0 -26.9248840874061 0.5505835674703121)"><path d="M-33.331039277042166 -5.9058233967801375 C-36.89869142223406 -4.568875200345401, -49.56849919990904 1.170510048135717, -57.169387651607394 -1.5113307405263186 M-28.094712305019513 -7.166556891315226 C-38.36699178602046 -4.1389510599571615, -47.42722035490057 -3.3220376376341862, -56.6929425932467 0.9680813886225224" stroke="#000000" stroke-width="2" fill="none"></path></g><g transform="translate(264.5 184) rotate(0 -26.9248840874061 0.5505835674703121)"><path d="M-33.14736865570496 12.562351040217896 C-36.6119922154195 8.23145469657019, -49.33819927748925 8.299863200151595, -57.169387651607394 -1.5113307405263186 M-27.911041683682306 11.301617545682808 C-38.319942642025715 8.1315066668865, -47.44181781652439 2.7498225251361754, -56.6929425932467 0.9680813886225224" stroke="#000000" stroke-width="2" fill="none"></path></g></g><g transform="translate(174.5 65) rotate(0 11 23)"><text x="0" y="32" font-family="Virgil, Segoe UI Emoji" font-size="36px" fill="#000000" text-anchor="start" style="white-space: pre;" direction="ltr">L</text></g><g transform="translate(474.5 64) rotate(0 12 23)"><text x="0" y="32" font-family="Virgil, Segoe UI Emoji" font-size="36px" fill="#000000" text-anchor="start" style="white-space: pre;" direction="ltr">R</text></g><g transform="translate(64 422.00000000000006) rotate(0 278 32.5)"><path d="M-0.7291665419936181 -0.7981485739350319 C182.5133308712393 -4.029655015438795, 364.2699533455074 -2.7759108423888685, 557.4686440601945 0.1174296483397484 M-0.5385885186493397 0.1936162777245045 C210.5691285673529 1.3305358867049215, 420.8828080251813 1.2781614045500753, 556.4786068730057 0.43236685469746594 M553.1194622851908 1.5639684461057186 C553.6204000887461 24.919212707784027, 551.6184649643488 44.099923125468194, 553.3938082791865 61.51944461092353 M556.2587620746344 -1.2958953212946653 C557.5435576952062 15.640070420224223, 557.5128070033155 31.703494734130807, 555.3281921278685 64.16220434196293 M556.2911929741501 63.5760552033782 C424.27173545025283 64.14668298849463, 289.8270475186407 63.698269568771124, 1.4408376827836038 63.67578564733267 M556.4266643099487 65.31290553286672 C429.4608387749642 66.77684709560872, 302.9136220961809 66.4952535582781, -0.2837419219315052 64.49368644431233 M-2.819011177867651 68.51143315061927 C-4.3530181211419405 50.661198569927365, -2.8133043807931246 28.80903756711632, -1.5212810896337032 -1.7594777084887028 M-0.24729912169277668 63.62409676797688 C-0.8019822075031697 50.816413186024874, 0.8891794846393168 39.473712590523064, -0.648850666359067 -0.6705158185213804" stroke="#000000" stroke-width="2" fill="none"></path></g><g><g transform="translate(328 422.00000000000006) rotate(0 1.854009590921578 33.48547782655805)"><path d="M1.4254689551889896 0.8119359277188778 C0.33026077548041943 31.40114410473034, 3.0427040080167354 55.20326960962266, 3.1163875199854374 68.1419772170484 M1.128355098888278 -1.1710215639322996 C0.6890222292952239 16.60741337845102, 0.2674519878439605 36.89965943228454, 0.9511077534407377 67.92236633785069" stroke="#000000" stroke-width="2" fill="none"></path></g></g><g transform="translate(10 381.00000000000006) rotate(0 18 23)"><text x="0" y="32" font-family="Virgil, Segoe UI Emoji" font-size="36px" fill="#000000" text-anchor="start" style="white-space: pre;" direction="ltr">B'</text></g><g transform="translate(173 436.00000000000006) rotate(0 15.5 23)"><text x="0" y="32" font-family="Virgil, Segoe UI Emoji" font-size="36px" fill="#000000" text-anchor="start" style="white-space: pre;" direction="ltr">L'</text></g><g transform="translate(473 435.00000000000006) rotate(0 16.5 23)"><text x="0" y="32" font-family="Virgil, Segoe UI Emoji" font-size="36px" fill="#000000" text-anchor="start" style="white-space: pre;" direction="ltr">R'</text></g><g transform="translate(584.25 183.50000000000006) rotate(0 17 23)"><text x="0" y="32" font-family="Virgil, Segoe UI Emoji" font-size="36px" fill="#000000" text-anchor="start" style="white-space: pre;" direction="ltr">K'</text></g><g><g transform="translate(672.4722222222222 462.8333333333333) rotate(0 -2.0010948515432005 49.200723627789216)"><path d="M-2.60391553863883 2.393034365028143 C1.0558694631068226 35.563892362742834, -3.261232134679127 70.41434249302588, -2.8805377148091793 96.00841289055029" stroke="#000000" stroke-width="2.5" fill="none" stroke-dasharray="12 8"></path></g></g><g><g transform="translate(176.91666666666663 485.61111111111103) rotate(0 -1.1245936507436909 31.810927489772496)"><path d="M2.1618342734873295 1.9022155068814754 C-3.7818983758298876 25.740287794202928, -5.360547218252185 46.835759691565926, -3.919538814988414 61.719639472663516" stroke="#000000" stroke-width="2.5" fill="none" stroke-dasharray="12 8"></path></g></g><g><g transform="translate(490.80555555555554 487.27777777777777) rotate(0 -4.262367834026634 37.62890159359415)"><path d="M-2.1552673242986202 3.0909887813031673 C-3.056129838726567 27.94645532432191, -2.822084263145844 55.06751673045306, -6.369468343754647 72.16681440588513" stroke="#000000" stroke-width="2.5" fill="none" stroke-dasharray="12 8"></path></g></g></svg>