<svg version="1.1" xmlns="http://www.w3.org/2000/svg" viewBox="0 0 720.5 921.4255662225188">
  <!-- svg-source:excalidraw -->
  <defs>
    <style>
      @font-face {
        font-family: "Virgil";
        src: url("https://excalidraw.com/FG_Virgil.woff2");
      }
      @font-face {
        font-family: "Cascadia";
        src: url("https://excalidraw.com/Cascadia.woff2");
      }
    </style>
  </defs>
  <g transform="translate(65.5 51) rotate(0 278 32.5)"><path d="M0.5286920204758644 0.49252039045095447 C174.23310690559447 4.592868717700243, 350.8863148204982 4.155655249148608, 554.5922954693436 0.6946006879210472 M-0.029974312335252763 -0.49003073498606686 C148.50217211879792 -3.3212766552567485, 296.96747818738226 -3.4388900900483135, 555.6978061012924 -0.0016845159232616426 M553.566103015095 1.3586416505277157 C553.7463816043921 25.827138820197433, 555.2969138261863 45.39771347399801, 554.4744135476649 63.41635933145881 M554.5929845105857 1.9553104806691408 C556.7577576017939 14.015894007403405, 557.8574504829012 26.423052317462865, 556.5029640328139 63.57682796008885 M554.5417212143541 66.02473808377981 C442.5956138577312 65.8869330972135, 330.7526940621436 66.63486672338843, -1.4703802928328515 64.27288466542959 M555.8481721930206 65.71992929652333 C423.1120204012841 61.152074718594555, 290.72479973137376 61.38190238487721, -0.4738169856369496 65.3802863188088 M-2.3306376598775387 66.78952005133033 C-2.098939536232501 45.555301590356976, -3.451582668442279 28.611393035389483, -3.233415689319372 -0.20873913541436195 M0.09303445927798748 63.866383807733655 C-0.9976628555916249 39.32962267799303, -0.4419267310760915 11.344148245640092, -0.5155750382691622 0.6773277092725039" stroke="#000000" stroke-width="2" fill="none"></path></g><g><g transform="translate(329.5 51) rotate(0 -1.5768758421763778 35.59958096500486)"><path d="M-3.870581354945898 3.1674154065549374 C-1.2349133189581334 17.615045487415045, -3.063264458980411 32.81782922428101, -1.3254834078252316 70.59042086824775 M0.31597871892154217 0.6087410617619753 C0.488086623530835 26.54459377238527, -0.8071904355473816 52.45556130539626, 0.7168296705931425 67.08502920158207" stroke="#000000" stroke-width="2" fill="none"></path></g></g><g><g transform="translate(183.5 121) rotate(0 164.5391381571897 148.277784219943)"><path d="M-1.6909101866185665 2.074381735175848 C-5.940157782714814 37.47685143237934, -4.077162388302386 73.05528321636841, 2.205731187015772 107.85012843832374 M0.5397923123091459 0.31470747478306293 C-0.6529738884605465 25.786461198497566, 0.5805943707749249 49.66028676757589, -2.5554104316979647 106.7830515075475 M-0.6367759060193989 109.16570837168948 C106.89969264851166 130.60828233527275, 214.50177170408378 159.6523177560375, 327.71960372945335 190.1129260956587 M0.26870140192610426 108.10653304210201 C129.8528641015743 138.5198976313074, 258.2856026708436 173.6085329584049, 326.2656507682294 190.77760769943953 M327.56387654319406 193.8846165202558 C324.06486190514244 228.4065772013157, 327.63503235147476 267.76998510513226, 329.64209154226796 296.2408609651029 M325.78725971095264 190.81350739486516 C326.5693680309358 234.01371055726406, 330.27899378410405 274.0448933963336, 333.0427170486839 295.83468117006123" stroke="#000000" stroke-width="2" fill="none"></path></g><g transform="translate(183.5 121) rotate(0 164.5391381571897 148.277784219943)"><path d="M318.0879908369596 271.0004920689376 C320.1263191821051 279.35343696673925, 326.7075356489246 288.10824110449744, 336.2484482356997 295.68480960838497 M320.3186933358873 269.2408178085448 C322.2751267523117 275.26547465730005, 326.9141262877678 279.779033056538, 331.48730661698596 294.6177326776087" stroke="#000000" stroke-width="2" fill="none"></path></g><g transform="translate(183.5 121) rotate(0 164.5391381571897 148.277784219943)"><path d="M338.4876302294265 268.77008514571673 C333.73494950216235 278.18388033652707, 333.568321753827 287.6764641067946, 336.2484482356997 295.68480960838497 M340.7183327283542 267.01041088532395 C337.81147822387885 273.6917497994907, 337.5801422272126 278.737809282707, 331.48730661698596 294.6177326776087" stroke="#000000" stroke-width="2" fill="none"></path></g></g><g><g transform="translate(170.5719137322435 122.5) rotate(0 157.31812967504885 147.9784937966615)"><path d="M314.13615732092666 1.736501719802618 C315.7874863084604 42.53230423005256, 320.68934347279355 81.74403339782688, 316.18273558198564 108.63195743784308 M316.89993390079843 -0.004211289808154106 C319.27821652308785 33.769154762025316, 317.3289689284301 70.15437880150542, 319.31221008217983 107.49555631168187 M317.59170783588604 106.91919776873429 C188.2809888992728 143.41828750989342, 64.87279058955447 175.1647510394775, 1.6689184892822126 193.08133735771403 M318.97615187937214 107.02871431204917 C208.38071740748822 137.99326308606132, 99.95896831981071 164.92640978621031, -0.1257966300268779 191.60078546039907 M-4.6759507320821285 190.18221166357398 C-0.5601802465126573 222.79434026819993, 1.1532905580303252 254.25322928461586, 9.523025067376238 295.53536238893867 M-2.184542464092374 192.95071579702199 C0.2462494526345531 214.36939769723867, 2.2851366141453884 235.42567795115937, 6.8181386104247395 295.96119888313115" stroke="#000000" stroke-width="2" fill="none"></path></g><g transform="translate(170.5719137322435 122.5) rotate(0 157.31812967504885 147.9784937966615)"><path d="M-9.112083522274714 270.38528489376444 C-2.4431648596790074 280.4669475605864, 6.794104688661067 289.0831240010996, 4.367984935494405 296.59315632097423 M-6.348306942402941 268.64457188415366 C-0.627520889990814 275.71978831384985, 1.2012803224639805 285.44284477947025, 7.497459435688597 295.456755194813" stroke="#000000" stroke-width="2" fill="none"></path></g><g transform="translate(170.5719137322435 122.5) rotate(0 157.31812967504885 147.9784937966615)"><path d="M11.347612132997293 268.79756449032936 C10.245089755194703 279.6934736247332, 11.724341726154833 288.91169043795543, 4.367984935494405 296.59315632097423 M14.111388712869067 267.0568514807186 C13.080103618552439 274.7210977531987, 8.148263291599772 284.9687958700581, 7.497459435688597 295.456755194813" stroke="#000000" stroke-width="2" fill="none"></path></g></g><g transform="translate(152.5 155) rotate(0 28 27.5)"><path d="M37.61684478761224 2.4612282984975096 C42.844360432132376 4.407426965314862, 50.50749491108362 10.400361361253223, 53.50817646354429 15.46153215890647 C56.50885801600496 20.52270295655972, 57.050310238026974 27.052522287244507, 55.62093410237626 32.82825308441699 C54.19155796672555 38.60398388158948, 50.08099857300469 46.68525912862694, 44.931919649640015 50.11591694194139 C39.78284072627534 53.54657475525585, 30.920868394712787 53.70434375910329, 24.726460562188212 53.41219996430371 C18.532052729663636 53.12005616950413, 11.933632123664552 51.772690109784435, 7.765472654492566 48.36305417314392 C3.597313185320581 44.95341823650341, 0.2234232462066471 38.76825836248925, -0.28249625284369984 32.95438434446064 C-0.7884157518940468 27.140510326432036, 1.5247797848341733 18.89875604127185, 4.729955660190484 13.479810064972288 C7.935131535546795 8.060864088672727, 11.947979990550934 1.2005202465646643, 18.948558999294164 0.44070848666327933 C25.949138008037394 -0.3191032732381055, 40.649108911186296 5.995013845943236, 46.733429712649865 8.920939505563979 C52.817750514113435 11.846865165184722, 55.14691922011365 17.546624936779235, 55.454483808075594 17.99626244438774 M40.72885761216825 0.5068692549336866 C45.07628424739431 2.812785236257444, 48.05737980815578 12.377806919451512, 50.53579855075513 17.631833588130974 C53.014217293354484 22.885860256810435, 56.379740121776 26.763546731459535, 55.59937006776435 32.03102926701046 C54.81900001375269 37.298511802561386, 50.88422859947234 45.23281818024569, 45.8535782266852 49.236728801436534 C40.822927853898065 53.24063942262738, 31.47363936343005 56.91396277468921, 25.41546783104151 56.05449299415554 C19.357296298652972 55.195023213621866, 13.95211819333839 48.77255358856863, 9.504549032353978 44.07991011823449 C5.056979871369568 39.38726664790035, -0.45987138814035033 33.66506568795912, -1.2699471348649496 27.89863217215071 C-2.080022881589549 22.132198656342293, 1.04336965933672 13.53148776798082, 4.644094552006383 9.481309023383998 C8.244819444676045 5.431130278787176, 14.629095754045526 5.177772098710744, 20.334402221153027 3.5975597045697754 C26.03970868826053 2.017347310428807, 35.69569824182398 0.3731186324994636, 38.87593335465138 0.0000346585381905129 C42.05616846747878 -0.37304931542308256, 39.72844233880695 0.26680525741627714, 39.4158128981174 1.3590558608021368" stroke="#000000" stroke-width="2" fill="none"></path></g><g><g transform="translate(153.5 182) rotate(0 27.656874937936664 -0.07383758197320844)"><path d="M3.205731187015772 -0.1498715616762638 C16.774321315754204 0.5300521377287803, 39.67305952193215 1.3210918674990535, 56.629414949566126 -0.5109694935381413 M-1.5554104316979647 -1.2169484924525023 C17.474697510506957 0.8677293943054976, 35.58230626916513 1.942784940712154, 56.86916030757129 0.23720677383244038" stroke="#000000" stroke-width="2" fill="none"></path></g></g><g><g transform="translate(486.5 200) rotate(0 -56.556249754503376 0.57909085307071)"><path d="M-2.450153674930334 0.6319574378430843 C-37.15942817334086 1.3346677139773966, -76.14043430009858 -0.9161258824728428, -113.00842257961631 2.433659341186285 M0.6793208252638578 -0.5044436883181334 C-21.09724789787084 -0.9000779138132928, -45.307223774623125 -1.7294421024806796, -113.7918203342706 -0.9593555759638548" stroke="#000000" stroke-width="2" fill="none"></path></g><g transform="translate(486.5 200) rotate(0 -56.556249754503376 0.57909085307071)"><path d="M-88.11557547020965 -10.763187769280869 C-93.83690783167063 -6.790967989373458, -103.98121484695245 -5.83585277803085, -113.8002429138869 0.47430376522243023 M-84.98610097001546 -11.899588895442086 C-89.57387792880331 -9.335081298303637, -96.44829678497261 -8.237171677807307, -114.5836406685412 -2.9187111519277096" stroke="#000000" stroke-width="2" fill="none"></path></g><g transform="translate(486.5 200) rotate(0 -56.556249754503376 0.57909085307071)"><path d="M-87.98790643125193 9.757623691339568 C-94.08153671840583 6.757586193760909, -104.26922063296965 0.7405397974086805, -113.8002429138869 0.47430376522243023 M-84.85843193105774 8.62122256517835 C-89.15310263533203 6.992770793032145, -96.05359807911535 3.899274710688746, -114.5836406685412 -2.9187111519277096" stroke="#000000" stroke-width="2" fill="none"></path></g></g><g transform="translate(265.5 153) rotate(0 54.5 30.5)"><path d="M1.2174821235239506 1.0795846246182919 C32.92101494399831 -1.8553862971626223, 64.57477740924806 1.089242537561804, 105.17005840316415 -3.1108208633959293 M1.99872119538486 0.27082242257893085 C26.936791023705155 -0.21294960590079426, 51.34344109799713 -1.4095119556970894, 108.94699264876544 1.2821485567837954 M110.76759925857186 3.7838105224072933 C110.510466515664 15.014530822914097, 107.34639531338587 24.14212841223926, 111.15319326892495 61.79228427633644 M109.00739122740924 0.7819382715970278 C110.72367104901001 10.902336763683708, 108.8724686206691 24.250230449251834, 108.66038794629276 59.586555497720845 M105.47787645831704 60.574519421905286 C75.99566865982487 57.832687573786835, 49.6387393342331 60.20624859845267, 0.0656532384455204 62.147473003715284 M109.03128762356937 59.284877317026265 C83.96395779764279 58.25099893795327, 56.1976056786254 61.84430398928002, 0.3237630259245634 61.36502440460027 M0.5071271993219852 60.53703847154976 C-2.9244339447654784 41.38509482266382, 2.046161295827478 22.404198384471236, -1.0548419617116451 1.7236662171781063 M-0.7130979169160128 59.05045254714788 C2.4760922858305277 39.3655533595942, 2.001465327460319 13.632392529584465, 0.807906461879611 -1.5471786092966795" stroke="#000000" stroke-width="2" fill="none"></path></g><g><g transform="translate(673.5 174) rotate(0 -148.080217425343 1.1647653482289684)"><path d="M0.4667846376962643 -1.1205602092824318 C-93.15790337904649 2.8757646111472814, -189.15269180487763 0.13710007145225633, -296.8050186495762 3.007591337062779 M0.6445837988902352 -0.5657001950132129 C-81.61703708010214 -0.31103821257101405, -162.12857663116785 2.6424710158839364, -296.0434661838141 3.450090905740339" stroke="#000000" stroke-width="2" fill="none"></path></g><g transform="translate(673.5 174) rotate(0 -148.080217425343 1.1647653482289684)"><path d="M-267.33704323654973 -8.628831175560054 C-276.7772385491655 -2.1952966277937174, -289.46544681660765 -3.4024286500320207, -298.4773631687191 4.808732556268055 M-267.09729787854457 -7.880654908189472 C-276.2619935378413 -6.097339497477142, -283.23811948054987 0.048003562532086264, -297.4504816732284 5.40540138640948" stroke="#000000" stroke-width="2" fill="none"></path></g><g transform="translate(673.5 174) rotate(0 -148.080217425343 1.1647653482289684)"><path d="M-267.11286629503576 11.89115291519237 C-276.7487700162727 11.845708411364923, -289.50777312330865 4.158387247636573, -298.4773631687191 4.808732556268055 M-266.8731209370306 12.639329182562951 C-276.50955271793225 8.784815310421852, -283.5472775109344 9.291721966153782, -297.4504816732284 5.40540138640948" stroke="#000000" stroke-width="2" fill="none"></path></g></g><g transform="translate(20.5 10) rotate(0 13 23)"><text x="0" y="32" font-family="Virgil, Segoe UI Emoji" font-size="36px" fill="#000000" text-anchor="start" style="white-space: pre;" direction="ltr">B</text></g><g transform="translate(686.5 14) rotate(0 12 23)"><text x="0" y="32" font-family="Virgil, Segoe UI Emoji" font-size="36px" fill="#000000" text-anchor="start" style="white-space: pre;" direction="ltr">K</text></g><g><g transform="translate(673.5 54) rotate(0 2.262926659505368 305.48709392212334)"><path d="M-0.9735587939620018 0.5434566602110863 C-3.0686946808099744 206.83545324328915, -0.43343289091437975 411.13095096965884, 5.389765419065952 610.3665437325835 M-0.5628061957657338 0.7821241922676564 C1.399528312832117 123.7644354406558, 3.0515987924858927 246.91614816773685, 6.2011856131255625 610.4307311840355" stroke="#000000" stroke-width="2" fill="none"></path></g></g><g transform="translate(309.5 160.5) rotate(0 10.5 23)"><text x="10.5" y="32" font-family="Virgil, Segoe UI Emoji" font-size="36px" fill="#000000" text-anchor="middle" style="white-space: pre;" direction="ltr">F</text></g><g><g transform="translate(264.5 184) rotate(0 -25.85597630031407 -0.5378551818430424)"><path d="M0.5416448451578617 1.7383206151425838 C-19.559752680547536 -0.5043312230333683, -39.98704360835254 0.9732947430387142, -51.43570288643241 -2.8140309788286686 M1.8919052612036467 0.15886356122791767 C-20.976374264992774 -0.9459202400967479, -44.896215146780015 1.5538484342768788, -53.603857861831784 -1.8228484820574522" stroke="#000000" stroke-width="2" fill="none"></path></g><g transform="translate(264.5 184) rotate(0 -25.85597630031407 -0.5378551818430424)"><path d="M-26.609325711760434 -5.4923696946264355 C-37.53820257923086 -6.479575985977294, -48.765693332026785 -3.1959144929268697, -51.03956074826419 -4.636879460886121 M-25.25906529571465 -7.071826748541102 C-37.12721151268613 -6.26901879125418, -50.08976067770358 -1.6181970783908142, -53.20771572366357 -3.6456969641149044" stroke="#000000" stroke-width="2" fill="none"></path></g><g transform="translate(264.5 184) rotate(0 -25.85597630031407 -0.5378551818430424)"><path d="M-29.32203197029478 12.776413151733049 C-39.2528013454916 5.633834339528731, -49.57434032801492 2.816342746683553, -51.03956074826419 -4.636879460886121 M-27.971771554248996 11.196956097818383 C-38.905624304147494 4.709097184913151, -50.789152442690195 2.0932269154409067, -53.20771572366357 -3.6456969641149044" stroke="#000000" stroke-width="2" fill="none"></path></g></g><g transform="translate(174.5 65) rotate(0 11 23)"><text x="0" y="32" font-family="Virgil, Segoe UI Emoji" font-size="36px" fill="#000000" text-anchor="start" style="white-space: pre;" direction="ltr">L</text></g><g transform="translate(474.5 64) rotate(0 12 23)"><text x="0" y="32" font-family="Virgil, Segoe UI Emoji" font-size="36px" fill="#000000" text-anchor="start" style="white-space: pre;" direction="ltr">R</text></g><g transform="translate(64 422.0000000000001) rotate(0 278 32.5)"><path d="M1.0257188454270363 -1.1256123915314675 C146.35164309181275 0.7516582532227042, 290.2818291179836 1.6314125581085686, 556.1270908489823 0.40237122625112537 M0.1584568552672863 -0.7291393928229809 C127.74818633235992 -2.6283298473954195, 254.47459107190372 -2.0815756064057345, 556.3769233040512 -0.7351901464164258 M553.1731109954417 -0.759139034897089 C558.7998905059882 15.081456342246383, 551.6781204816886 32.666707328520715, 553.6270147897303 62.63091507181525 M556.5737365018576 -1.1653188299387693 C556.8962147570215 21.551025223452598, 556.0327423549257 43.46452999766916, 557.3129701744765 63.383292155340314 M556.2920195236802 65.07442756742239 C391.1945810284465 65.09027545866371, 228.40579884424804 65.53486435827614, -1.4463759288191795 64.58753996938466 M556.3447332434356 65.61839388087392 C369.6613133471459 63.230345165371894, 184.45534019768235 63.0471967574358, 0.5579613499343395 65.55232268050312 M-3.094357218593359 65.28270127996802 C-0.8573991519398987 45.919777555856854, -2.3940632802434267 23.114741862751544, 1.0133017636835575 1.0894347690045834 M-0.9976857174187899 65.7127344775945 C-0.8666845097206533 52.30776470107958, 0.7004957065917552 40.492167559452355, 0.14678706042468548 1.5581937599927187" stroke="#000000" stroke-width="2" fill="none"></path></g><g><g transform="translate(328 422.0000000000001) rotate(0 0.5321384407579899 33.59232942946255)"><path d="M3.9106209613382816 1.5844247601926327 C2.652281762752682 24.30093516064808, 1.202409626636654 42.04017734210939, -2.846344079822302 65.12492289766669 M1.2809226047247648 -0.5849473308771849 C0.2807293027453124 25.19619666049257, 1.2156463354639708 46.99054141175002, -0.9088941682130098 67.76960618980229" stroke="#000000" stroke-width="2" fill="none"></path></g></g><g transform="translate(10 381) rotate(0 18 23)"><text x="0" y="32" font-family="Virgil, Segoe UI Emoji" font-size="36px" fill="#000000" text-anchor="start" style="white-space: pre;" direction="ltr">B'</text></g><g transform="translate(173 436.0000000000001) rotate(0 15.5 23)"><text x="0" y="32" font-family="Virgil, Segoe UI Emoji" font-size="36px" fill="#000000" text-anchor="start" style="white-space: pre;" direction="ltr">L'</text></g><g transform="translate(473 435.0000000000001) rotate(0 16.5 23)"><text x="0" y="32" font-family="Virgil, Segoe UI Emoji" font-size="36px" fill="#000000" text-anchor="start" style="white-space: pre;" direction="ltr">R'</text></g><g><g transform="translate(188.76550972658686 489.7500000000001) rotate(0 165.51623780967773 149.18818112369627)"><path d="M2.1531932689249516 0.7922842763364315 C-5.507870968859643 37.65847560113296, -3.357216868139804 70.22741862369702, 0.5638765431940556 109.8846165202558 M-0.339612053707242 -1.4134445022791624 C-1.5692764508165422 24.26245232658461, -2.1301269705966117 43.17650033781305, -1.2127402890473604 106.81350739486516 M-0.9559732945592487 108.76948916964253 C76.70535542214566 129.42005639535213, 155.607770317933 148.48689823156872, 323.69969607148334 193.7609413486019 M-0.7828862716830741 108.24478338495605 C70.6704238241309 121.31526035494267, 141.74695878656073 140.65532264844433, 325.84477025561813 190.7875851884375 M324.94515803828835 193.7236662171781 C331.577095418504 217.29454732055416, 327.27570506750885 248.20646421120142, 328.569885641122 299.7898067496717 M326.8079064618796 190.45282139070332 C329.49495562578903 229.97247463963814, 333.44625768900625 267.9533777570899, 334.0172498317154 297.5066508818418" stroke="#000000" stroke-width="2" fill="none"></path></g><g transform="translate(188.76550972658686 489.7500000000001) rotate(0 165.51623780967773 149.18818112369627)"><path d="M324.6430422033253 270.6020214573237 C322.19809090992993 281.60053190760016, 328.42200688364375 288.0590708337995, 335.58112637490945 299.3912674020976 M322.1502368806931 268.3962926787081 C324.257410108557 277.51515470479245, 326.3035271454822 279.71803154802217, 333.80450954266803 296.32015827670693" stroke="#000000" stroke-width="2" fill="none"></path></g><g transform="translate(188.76550972658686 489.7500000000001) rotate(0 165.51623780967773 149.18818112369627)"><path d="M345.14317465311404 269.6721978574092 C336.0194091707793 280.5758408097861, 335.57774394504827 287.3367102073407, 335.58112637490945 299.3912674020976 M342.65036933048185 267.4664690787936 C340.4829886330994 276.52659618053735, 338.26300285725245 278.92297046017114, 333.80450954266803 296.32015827670693" stroke="#000000" stroke-width="2" fill="none"></path></g></g><g><g transform="translate(175.83742345883036 491.2500000000001) rotate(0 157.7448217824811 150.3201880371198)"><path d="M314.0097216834526 2.5618452094495296 C317.8467951844249 21.94820210554672, 320.7791132227656 45.75532799468411, 314.95693852483384 106.18221166357398 M317.27584913011896 1.7998232413083315 C316.78942631746787 24.008627658680112, 317.5421123273861 50.33907024931911, 317.4483467928236 108.95071579702199 M317.04227692098254 109.22131068164231 C221.308152868578 134.5036714653161, 124.45936724325584 161.4625153031958, -3.2067397996573987 191.85753982719064 M318.69638336461963 107.2263302311319 C190.80209707522332 142.47103497418482, 63.70223498614388 174.56578896118168, -1.3518693746729293 192.46226225053576 M2.0919694043695927 188.4551183246076 C-2.7073463751950193 218.26487123571732, -1.7932898941481268 250.23160885764682, 8.684991987275225 298.8405528329313 M-0.8586493600159883 191.13674266822636 C3.1677905673369495 214.95574850436518, 4.624872725219225 241.5742096499189, 6.468095969261867 295.05286731012166" stroke="#000000" stroke-width="2" fill="none"></path></g><g transform="translate(175.83742345883036 491.2500000000001) rotate(0 157.7448217824811 150.3201880371198)"><path d="M-8.538925176282804 269.84926073422366 C-3.4564538797200917 272.8969948614269, 1.5850643999661589 280.40663280123493, 2.7921452371797386 293.23507897369564 M-5.272797729616444 269.08723876608246 C-3.0103897317229875 272.30845330086373, 0.21864089176521162 279.5045360014729, 5.283553505169493 296.00358310714364" stroke="#000000" stroke-width="2" fill="none"></path></g><g transform="translate(175.83742345883036 491.2500000000001) rotate(0 157.7448217824811 150.3201880371198)"><path d="M11.96640813445982 269.0422240552627 C12.892461657228598 272.33511621808526, 13.768873633396339 280.008681927697, 2.7921452371797386 293.23507897369564 M15.23253558112618 268.2802020871215 C12.602084551036192 271.4040474725165, 10.940996940380536 278.79259253009417, 5.283553505169493 296.00358310714364" stroke="#000000" stroke-width="2" fill="none"></path></g></g><g transform="translate(157.76550972658686 523.7500000000001) rotate(0 28 27.5)"><path d="M26.26550158214752 -0.9087063769677499 C31.63077858696146 -1.4527745155088816, 40.19456241713027 2.2673139468737094, 44.84680429756531 6.15963557249842 C49.499046178000356 10.05195719812313, 52.653981833644664 16.704229185421703, 54.17895286475779 22.445223376780515 C55.703923895870915 28.186217568139327, 57.07342257479278 35.48590636154102, 53.996630484244065 40.605600720651296 C50.91983839369535 45.72529507976157, 41.861010026624555 51.243978163792676, 35.71820032146549 53.163389531442164 C29.575390616306425 55.08280089909165, 22.31773370588431 54.1219453933197, 17.139772253289674 52.12206892654822 C11.961810800695037 50.12219245977675, 7.427665911587148 45.984749042710945, 4.650431605897666 41.16413073081332 C1.8731973002081825 36.343512418915694, -0.23456480396423984 28.848488220165418, 0.4763664191527752 23.19835905516245 C1.1872976422697903 17.54822989015948, 2.3077668720331035 10.586347374630437, 8.916018944599756 7.263355740795511 C15.52427101716641 3.940364106960585, 33.44503334181107 2.1884025754800644, 40.12587885455269 3.2604092521528933 C46.80672436729431 4.332415928825722, 49.316821141871635 13.3134906931883, 49.00109202104947 13.695395800832483 M51.52210612634461 10.6715100790184 C54.67819200909211 15.125012691252827, 55.40549878733414 25.36891578692624, 54.632186127613224 31.05319791394087 C53.85887346789231 36.7374800409555, 51.17511875111267 40.62468492366371, 46.882230168019134 44.777202841106174 C42.5893415849256 48.92972075854864, 34.98446876394375 55.301323262220656, 28.874854629052003 55.96830541859566 C22.765240494160253 56.63528757497067, 14.694994792874951 52.07711116811518, 10.224545358668632 48.77909577935621 C5.7540959244623116 45.48108039059724, 3.7044877303301336 42.15368952787164, 2.0521580238140835 36.18021308604183 C0.3998283172980337 30.206736644212018, -1.9843361672558788 19.079506133445562, 0.3105671195723332 12.93823712837734 C2.605470406400545 6.7969681233091155, 9.522756366884337 0.9521691917820432, 15.821577744783355 -0.6674009443675182 C22.12039912268237 -2.2869710805170795, 31.94659683407598 1.3818689562878024, 38.103495386966436 3.2208163114799717 C44.26039393985689 5.059763666672141, 50.425757786370745 9.177464611011404, 52.76296906212609 10.366283186785498 C55.10018033788143 11.555101762559593, 52.711203726242694 9.98313247508618, 52.12676304149849 10.35372776612454" stroke="#000000" stroke-width="2" fill="none"></path></g><g><g transform="translate(158.76550972658686 550.7500000000001) rotate(0 28.18049810640514 0.34906195756047964)"><path d="M1.5638765431940556 1.884616520255804 C16.704783087838443 -1.4578812935389578, 38.30652949275449 0.044729065708816074, 53.173110995441675 0.240860965102911 M-0.21274028904736042 -1.1864926051348448 C20.647639423515653 2.32690155075863, 43.6739250115119 1.799003535024822, 56.57373650185764 -0.16531882993876934" stroke="#000000" stroke-width="2" fill="none"></path></g></g><g><g transform="translate(491.76550972658697 568.7500000000001) rotate(0 -56.64489121921361 -0.4335362697020173)"><path d="M-3.6759507320821285 -1.8177883364260197 C-36.39472867254168 0.6859537879005073, -70.70259049156682 0.9064084217883646, -109.40035351738334 -0.4646376110613346 M-1.1845424640923738 0.950715797021985 C-23.949890349395574 -1.0959631131216883, -47.32839289052412 -2.0821616508252916, -112.10523997433484 -0.03880111686885357" stroke="#000000" stroke-width="2" fill="none"></path></g><g transform="translate(491.76550972658697 568.7500000000001) rotate(0 -56.64489121921361 -0.4335362697020173)"><path d="M-87.82591183312405 -12.742469441445706 C-94.92254271276981 -8.070693313296983, -103.68555895009266 -4.8808212436072305, -108.50559349171817 -1.5034387279301882 M-85.3345035651343 -9.973965307997702 C-90.09591672149297 -8.916313160383156, -95.4494532840153 -7.8072299675544725, -111.21047994866967 -1.0776022337377071" stroke="#000000" stroke-width="2" fill="none"></path></g><g transform="translate(491.76550972658697 568.7500000000001) rotate(0 -56.64489121921361 -0.4335362697020173)"><path d="M-87.36889589277156 7.773649558406653 C-94.76322383626655 6.28731452050156, -103.66351375113237 3.314768925181455, -108.50559349171817 -1.5034387279301882 M-84.8774876247818 10.542153691854658 C-89.69211784732364 7.246055322010651, -95.14251752689074 4.006810457717353, -111.21047994866967 -1.0776022337377071" stroke="#000000" stroke-width="2" fill="none"></path></g></g><g transform="translate(270.76550972658697 521.7500000000001) rotate(0 54.5 30.5)"><path d="M-2.460787620395422 -0.679224107414484 C35.008691013138744 0.23155560845509182, 79.2708065180108 -0.4739429677091538, 105.47787645831704 -0.42548057809472084 M0.002238048240542412 0.0328266192227602 C26.807351803872734 -2.2015990486927333, 53.361990629695356 -2.0750813356228175, 109.03128762356937 -1.7151226829737425 M112.95319441333413 0.6475260518491268 C108.74385702395811 22.490627950709317, 105.7465758302249 43.03468428682537, 109.50712719932199 60.53703847154976 M108.28585429303348 -0.5274209808558226 C109.54733233524486 14.331676473561677, 106.91305838895961 24.07970710974187, 108.28690208308399 59.05045254714788 M106.32579842582345 62.61581292375923 C65.60341938855126 62.285802573915575, 26.66903855074196 65.41377720331774, -3.2631787918508053 64.0965385697782 M110.95792688243091 60.088541822507985 C72.5410669765435 59.590359845627106, 38.48347335178404 59.35720882700757, 1.9731481801718473 62.83580507524312 M-1.6177558563649654 58.30705740675331 C0.017583195026963594 44.509009663481265, -3.292541321460158 26.74077377934009, -2.60391553863883 2.393034365028143 M1.5454943906515837 59.55973114259542 C0.2018084934540092 38.56363371750341, 0.5838805249519645 15.965868888236585, -0.5411386359483004 -1.3030958604067564" stroke="#000000" stroke-width="2" fill="none"></path></g><g transform="translate(314.76550972658697 529.2500000000001) rotate(0 10.5 23)"><text x="10.5" y="32" font-family="Virgil, Segoe UI Emoji" font-size="36px" fill="#000000" text-anchor="middle" style="white-space: pre;" direction="ltr">F</text></g><g><g transform="translate(269.76550972658697 552.7500000000001) rotate(0 -25.25236154254526 0.10764409819188359)"><path d="M3.599646482616663 -1.4646376110613346 C-18.805170996673407 -0.6304481175169349, -32.93908012025059 -2.5740524676069616, -52.09856840595603 0.004476096481084824 M0.894760025665164 -1.0388011168688536 C-16.257344248332085 -2.3443948511406782, -31.264293569326405 -2.245980012826622, -54.10436956770718 1.9765972066670656" stroke="#000000" stroke-width="2" fill="none"></path></g><g transform="translate(269.76550972658697 552.7500000000001) rotate(0 -25.25236154254526 0.10764409819188359)"><path d="M-26.752403585941856 -12.32654960174122 C-40.77800596213976 -7.744001997828791, -46.351234780200265 -6.054059212467248, -52.20293797366321 1.9810733031481504 M-29.457290042893355 -11.90071310754874 C-37.411784498567016 -8.98119992347988, -43.29478321479727 -5.010160083321277, -54.20873913541436 3.9531944133341312" stroke="#000000" stroke-width="2" fill="none"></path></g><g transform="translate(269.76550972658697 552.7500000000001) rotate(0 -25.25236154254526 0.10764409819188359)"><path d="M-24.05695608267984 5.944787642414951 C-38.58716717497379 5.345961294272593, -44.92325992090076 1.8647612246605583, -52.20293797366321 1.9810733031481504 M-26.76184253963134 6.370624136607432 C-35.63422469887206 3.747336278602586, -42.33028178752215 2.2069856339941096, -54.20873913541436 3.9531944133341312" stroke="#000000" stroke-width="2" fill="none"></path></g></g><g><g transform="translate(678 540.0000000000001) rotate(0 -147.46405351891883 0.5429122494482499)"><path d="M-2.6120656372386306 -0.3155435021517165 C-84.6344994984782 -2.7970544721792105, -164.36587023216646 -0.4747389300591654, -294.95131046197343 2.850985142114435 M0.02320342413581457 -1.2719636238834418 C-70.32455527113729 -2.988166574568863, -142.68722535162112 0.16015657594405242, -294.7598919331995 2.2707081942827725" stroke="#000000" stroke-width="2" fill="none"></path></g><g transform="translate(678 540.0000000000001) rotate(0 -147.46405351891883 0.5429122494482499)"><path d="M-270.271893248468 -8.898749899672632 C-276.8008295517499 -8.028188705579275, -280.39785998650285 -2.6353387442138994, -294.694238694754 3.418181197998049 M-266.7184820832157 -10.188392004551654 C-272.11166724128816 -7.7837613393872775, -280.3000075084298 -1.593270998685882, -294.43612890727496 2.635732598883035" stroke="#000000" stroke-width="2" fill="none"></path></g><g transform="translate(678 540.0000000000001) rotate(0 -147.46405351891883 0.5429122494482499)"><path d="M-269.91892136630827 11.619422856112513 C-276.9163412078393 6.721350990590997, -280.612564338891 6.34815277181279, -294.694238694754 3.418181197998049 M-266.36551020105594 10.329780751233491 C-272.027609092556 7.77080356722087, -280.30127468530964 9.001352734599376, -294.43612890727496 2.635732598883035" stroke="#000000" stroke-width="2" fill="none"></path></g></g><g transform="translate(71 791.0000000000001) rotate(0 278 32.5)"><path d="M-0.9491940841078759 -0.9476339712738991 C147.20210984386506 0.4749248414337636, 292.90933570787314 0.9321236043274403, 555.0677449360489 0.7158080205321312 M0.5251880697906017 -0.6466831378638744 C137.879581123963 4.6050717296004295, 275.97216311246154 3.9604426087737084, 556.0372137837112 -0.45344647690653805 M552.384060177952 -1.0311500765383244 C557.5194717583247 15.51325369765982, 555.109974378068 35.606756440363824, 559.0919694043696 61.45511832460761 M557.3949033748358 1.380806701257825 C556.4567627704703 13.314950805623084, 556.3443928158842 27.75692457612604, 556.141350639984 64.13674266822636 M556.4053207054734 65.43577390760183 C340.2338987078518 70.0096923955381, 126.85404317751527 67.64520231565832, 0.5701875820755958 65.32477437108756 M556.0587148241699 65.62327750399709 C375.6959752839059 68.75927931606769, 195.19657116234302 69.27644676506519, 0.4513420395553112 64.53159137442708 M2.1618342734873295 66.90221550688148 C-1.3089947742410004 43.33220465341583, -2.0342651647515595 17.046400190331042, -1.6791380308568478 2.3281125091016293 M-1.7402776945382357 64.05540694482625 C-0.09962617894634607 51.579447648953646, 0.610502188000828 36.66759243328124, 1.8369457852095366 -0.7900021504610777" stroke="#000000" stroke-width="2" fill="none"></path></g><g><g transform="translate(335 791.0000000000001) rotate(0 -0.21435889910011952 34.62901984807104)"><path d="M1.90143159404397 0.004476096481084824 C-0.7530266590975224 21.113519006501885, -3.1493175574205816 41.721612056903545, -2.077602233737707 69.06257524713874 M-0.10436956770718098 1.9765972066670656 C1.2297124463133513 15.147851148340852, 0.9989838796667754 28.432037295214833, -0.7872168887406588 69.25356359966099" stroke="#000000" stroke-width="2" fill="none"></path></g></g><g transform="translate(26 750.0000000000001) rotate(0 22.5 23)"><text x="0" y="32" font-family="Virgil, Segoe UI Emoji" font-size="36px" fill="#000000" text-anchor="start" style="white-space: pre;" direction="ltr">B''</text></g><g transform="translate(180 805.0000000000001) rotate(0 20.5 23)"><text x="0" y="32" font-family="Virgil, Segoe UI Emoji" font-size="36px" fill="#000000" text-anchor="start" style="white-space: pre;" direction="ltr">L''</text></g><g transform="translate(480 804.0000000000001) rotate(0 21.5 23)"><text x="0" y="32" font-family="Virgil, Segoe UI Emoji" font-size="36px" fill="#000000" text-anchor="start" style="white-space: pre;" direction="ltr">R''</text></g><g><g transform="translate(684.5 666.0000000000001) rotate(0 -1.7408111199180567 63.40600463375449)"><path d="M-3.430245365947485 2.6259403489530087 C-4.866267075520009 42.539085899945356, 1.9756050258502365 86.14286324633287, -0.2699511907994747 124.18606891855597" stroke="#000000" stroke-width="2.5" fill="none" stroke-dasharray="12 8"></path></g></g><g><g transform="translate(187.5 860.0000000000001) rotate(0 -1.1911409138783426 25.60841354355216)"><path d="M-3.233415689319372 -0.20873913541436195 C3.3457437725365162 16.617308552563195, 0.4241625495813788 32.13876362172887, -1.26723238453269 51.42556622251868" stroke="#000000" stroke-width="2.5" fill="none" stroke-dasharray="12 8"></path></g></g><g><g transform="translate(486.5 862.0000000000001) rotate(0 1.4364636617875632 24.592282261699438)"><path d="M3.9531944133341312 0.6475260518491268 C-0.062138034682720944 18.102845846023413, -3.059419228415936 34.25912007745356, 0.5071271993219852 48.53703847154975" stroke="#000000" stroke-width="2.5" fill="none" stroke-dasharray="12 8"></path></g></g><g transform="translate(592.5 177) rotate(0 14 23)"><text x="0" y="32" font-family="Virgil, Segoe UI Emoji" font-size="36px" fill="#000000" text-anchor="start" style="white-space: pre;" direction="ltr">k'</text></g><g transform="translate(610.5 553) rotate(0 19 46)"><text x="0" y="32" font-family="Virgil, Segoe UI Emoji" font-size="36px" fill="#000000" text-anchor="start" style="white-space: pre;" direction="ltr">k''</text><text x="0" y="78" font-family="Virgil, Segoe UI Emoji" font-size="36px" fill="#000000" text-anchor="start" style="white-space: pre;" direction="ltr"></text></g></svg>