<svg version="1.1" xmlns="http://www.w3.org/2000/svg" viewBox="0 0 666.4999999999993 438.5700075756759">
  <!-- svg-source:excalidraw -->
  <defs>
    <style>
      @font-face {
        font-family: "Virgil";
        src: url("https://excalidraw.com/FG_Virgil.woff2");
      }
      @font-face {
        font-family: "Cascadia";
        src: url("https://excalidraw.com/Cascadia.woff2");
      }
    </style>
  </defs>
  <g transform="translate(11.5 47) rotate(0 278.0000000000001 32.5)"><path d="M-0.8500520095229149 0.739448319375515 C157.88803656734527 2.8144054246246815, 313.4535314552486 1.347080261737108, 555.4441697254776 1.5168185338377953 M-0.6494165368378163 -0.785649698227644 C137.87719607986512 -4.505544466078282, 274.6718804433942 -4.593673342764378, 556.6553154759109 0.7333376951515675 M555.7452881671488 0.8051164411008358 C554.7356377539224 22.103602537419647, 553.6584462818689 48.91310166474432, 559.7313651181757 61.725619461387396 M557.1578089725226 0.5969126392155886 C557.9479430234991 18.698343974072486, 554.7502306616865 34.78758544381708, 556.7576040159911 63.30345590598881 M556.1697703972459 64.78684545606374 C440.2799536433071 68.47000481161474, 326.12818773165344 68.40833455595373, 1.5173887386918068 66.07180539220572 M556.0969642214477 65.55993350222707 C405.6965571206063 67.83190623867512, 256.2518682509661 66.74815205681324, 0.06081336066126824 64.52173248007894 M3.903128180652857 64.90040829405189 C1.4884222227148711 47.47718639532104, -2.7541516345925627 27.112584949471056, 0.7914954759180546 -1.7218819595873356 M1.899489475414157 63.256467716768384 C0.8750789211131631 41.36600591940805, -1.7159554316662253 17.113378670997918, 0.6825997959822416 1.7747518587857485" stroke="#000000" stroke-width="2" fill="none"></path></g><g><g transform="translate(275.5000000000002 47) rotate(0 0.9139610445126891 36.05912439338863)"><path d="M1.8486207984387875 2.7745614387094975 C2.3363669615052642 15.264177097845824, -1.3319459457136689 29.65324115175754, 3.792046334594488 66.8686172105372 M-1.96412424556911 1.7585421334952116 C-0.19013464478775877 14.647667951788755, -0.41045683650299924 29.312014641053977, 1.8333442378789186 70.35970665328205" stroke="#000000" stroke-width="2" fill="none"></path></g></g><g><g transform="translate(130.78438475105122 117) rotate(0 162.8342670011374 119.77541377302262)"><path d="M2.7745614387094975 2.855207946151495 C-2.0042305511291394 27.54751518229595, -3.7360039333364505 60.49217181550911, -4.415767540514025 104.02136984094977 M1.7585421334952116 -1.4126740526407957 C-1.8303083146313277 40.28983531451895, -1.8905132423240838 85.72387551038638, -0.9246780977691742 106.39986057765782 M-2.434780083478258 106.7825730474261 C89.47470801533655 131.6519126368518, 185.55328167535004 152.54900131019969, 323.6272540910249 192.77981987840275 M-1.231546190294059 109.23100070074653 C73.29124867557091 126.93019632330547, 150.90579409030175 144.60693299507977, 323.45492292376554 192.23713601921946 M321.75813938182637 191.68241813406348 C324.9106179207461 208.68197898936683, 332.79209783411545 228.97233923102954, 329.0081547222287 240.96350159868604 M324.090830255941 193.00360252149403 C327.6715948011563 206.17614264617683, 328.8758929291521 222.6451357218345, 330.0843015427888 235.64667685516184" stroke="#000000" stroke-width="2" fill="none"></path></g><g transform="translate(130.78438475105122 117) rotate(0 162.8342670011374 119.77541377302262)"><path d="M320.04823158496805 211.37463423620386 C320.0897400485373 214.70617857321642, 322.31894158007816 226.42959711131363, 327.952918753326 231.66804669611162 M319.03221227975376 207.10675223741157 C322.6221338425813 217.67941996456776, 328.4276984042787 231.68713364840437, 331.44400819607085 234.04653743281966" stroke="#000000" stroke-width="2" fill="none"></path></g><g transform="translate(130.78438475105122 117) rotate(0 162.8342670011374 119.77541377302262)"><path d="M340.4824105354553 209.48669011486405 C335.14187203723753 213.5025115679454, 332.0090872406691 225.72133198107693, 327.952918753326 231.66804669611162 M339.466391230241 205.21880811607176 C335.0851474796626 216.1237590315646, 332.9501982812796 230.86510856688741, 331.44400819607085 234.04653743281966" stroke="#000000" stroke-width="2" fill="none"></path></g></g><g><g transform="translate(437.25360932784747 118.5) rotate(0 -161.84257359821663 119.46421942487362)"><path d="M2.855207946151495 -0.25723132118582726 C-0.32064213493417604 25.300995944728104, 3.7787167557040666 51.22133777729139, -6.02743649773862 111.54359248653054 M-1.4126740526407957 0.8108049761503935 C-4.202576241536895 25.307194565166295, -1.1845615712681608 48.661489281360566, -3.648945761030575 107.66994412057102 M-3.2878096413889666 107.11177816822682 C-94.93886528940752 134.9670689192434, -191.76174372479318 155.97794392595733, -320.88805503851813 190.15625942486784 M-0.7959887214777228 106.88912491346979 C-115.37518839110612 142.0047066429717, -231.65157938455118 170.26741968274123, -321.4403568357051 193.10382385652537 M-321.9992774615409 190.00574937835336 C-323.3621473493922 209.7191163499062, -321.29967118152354 218.6983416506243, -321.22353039906056 239.18567017093307 M-320.67809307411034 192.8973150383681 C-323.8516407862955 206.17555633150153, -324.4356141004734 219.94031140124537, -326.54035514258476 238.7384755145759" stroke="#000000" stroke-width="2" fill="none"></path></g><g transform="translate(437.25360932784747 118.5) rotate(0 -161.84257359821663 119.46421942487362)"><path d="M-331.0412299892749 209.39708964241748 C-332.62470600361866 215.34275187297138, -326.20354568012124 221.78100088377303, -330.518985301635 242.28206800110644 M-335.3091119880672 210.4651259397537 C-334.49100349958684 217.52752983771688, -329.4149834060018 223.6132278008449, -328.14049456492694 238.4084196351469" stroke="#000000" stroke-width="2" fill="none"></path></g><g transform="translate(437.25360932784747 118.5) rotate(0 -161.84257359821663 119.46421942487362)"><path d="M-310.62529935943917 211.47309034173705 C-317.2680805744495 217.18947291718885, -315.8870367612671 223.11521600358384, -330.518985301635 242.28206800110644 M-314.89318135823146 212.54112663907327 C-318.50177145488465 219.50827671738952, -317.8932251795067 225.13969811879977, -328.14049456492694 238.4084196351469" stroke="#000000" stroke-width="2" fill="none"></path></g></g><g transform="translate(98.5 151) rotate(0 28 27.5)"><path d="M21.2816912179335 -1.4231019225118224 C27.20265491800917 -3.4836113738829444, 37.9392067770684 -1.7474530694475239, 43.06912101404079 1.6754312175724237 C48.19903525101318 5.098315504592371, 50.37885090477342 13.231808269720442, 52.06117663976784 19.114203799607864 C53.74350237476225 24.996599329495286, 54.99691931614795 31.397341063143053, 53.16307542400726 36.96980439689696 C51.32923153186657 42.54226773065087, 45.62434579082339 49.36595569606775, 41.058113286923685 52.54898380213132 C36.49188078302398 55.732011908194885, 31.695911200372166 57.2520150764984, 25.76568040060903 56.06797303327838 C19.83544960084589 54.88393099005835, 9.790306924859838 50.00724529026932, 5.476728488344865 45.444731542811155 C1.1631500518298905 40.88221779535299, -0.19137332728257483 34.67895415382833, -0.11579021848081794 28.692890548529387 C-0.04020710967906105 22.706826943230446, -0.5970265463195945 13.801713389193644, 5.930227141155406 9.52834991101751 C12.457480828630406 5.254986432841377, 31.057065336015746 2.5052491889756605, 39.04773190636919 3.0527096794725814 C47.03839847672263 3.6001701699695023, 54.095993977112755 12.389377121621521, 53.87422656327604 12.813112853999037 M12.84951171862976 8.790673279575952 C16.377816722746825 5.133382266868168, 20.400648809388503 2.349547462181096, 26.19534669138387 1.600517846805655 C31.99004457337924 0.851488231430214, 43.173900676422576 0.5845204190394138, 47.617699010601974 4.296495587323307 C52.06149734478137 8.008470755607199, 51.73607905738854 17.57070358012693, 52.858136696460264 23.872368856509013 C53.98019433553199 30.174034132891094, 57.06374636643198 37.53009904207891, 54.35004484503234 42.106487245615796 C51.63634332363271 46.68287544915268, 42.70272945424788 49.74424113705472, 36.575927568062454 51.33069807773035 C30.449125681877025 52.91715501840597, 23.17100601266327 52.92204175643576, 17.589233527919774 51.62522888966954 C12.007461043176278 50.328416022903326, 5.5913732832835255 48.61964290499746, 3.085292659601471 43.54982087713303 C0.5792120359194173 38.4799988492686, 0.822444136739285 27.185200579556074, 2.5527497858274515 21.206296722482925 C4.283055434915618 15.227392865409776, 12.024547155361283 9.783088382155286, 13.46712655413047 7.676397734694131 C14.909705952899657 5.569707087232976, 11.56810179911553 8.230746730484015, 11.208226178442573 8.56615283771599" stroke="#000000" stroke-width="2" fill="none"></path></g><g><g transform="translate(99.5 178) rotate(0 27.11982391960919 -0.6449799006804824)"><path d="M-0.8131049610674381 -1.3895756863057613 C24.490708388518545 -1.6899939835630358, 37.404417909067135 4.354345328398049, 52.75291731581092 -2.92824849113822 M-1.6329962443560362 1.638288689777255 C23.543135471139106 1.2935829733125863, 41.8335697847046 -0.008252452723682024, 55.872644083574414 1.402558220550418" stroke="#000000" stroke-width="2" fill="none"></path></g></g><g><g transform="translate(432.4999999999993 196) rotate(0 -57.64497990068048 1.4596663861034926)"><path d="M-1.3895756863057613 3.792046334594488 C-44.09863139394671 -4.066654263399541, -80.38961856583134 -2.963726589884609, -116.92824849113822 4.517084266990423 M1.638288689777255 1.8333442378789186 C-24.550576899535955 -3.216058881096542, -52.15873103482649 -1.5139090778119861, -112.59744177944958 0.887864189222455" stroke="#000000" stroke-width="2" fill="none"></path></g><g transform="translate(432.4999999999993 196) rotate(0 -57.64497990068048 1.4596663861034926)"><path d="M-86.21764175300547 -6.671819411489722 C-97.28704522730024 -10.339585272485014, -101.9250662199996 -5.392230079185534, -116.5256902705878 4.404948456212878 M-83.18977737692245 -8.630521508205291 C-89.74567790967625 -9.913773766914389, -97.80479932984048 -5.83728599701547, -112.19488355889916 0.77572837844491" stroke="#000000" stroke-width="2" fill="none"></path></g><g transform="translate(432.4999999999993 196) rotate(0 -57.64497990068048 1.4596663861034926)"><path d="M-85.4176901611973 13.833791523973844 C-96.75780638960794 2.547395577209252, -101.69291356338643 -0.1206270922210031, -116.5256902705878 4.404948456212878 M-82.38982578511428 11.875089427258274 C-89.29546876640948 5.875477933563049, -97.53807212126037 5.248669647926736, -112.19488355889916 0.77572837844491" stroke="#000000" stroke-width="2" fill="none"></path></g></g><g transform="translate(211.50000000000023 149) rotate(0 54.5 30.5)"><path d="M3.792046334594488 -2.131382789462805 C28.020414490718395 4.300911235567183, 60.75100661534816 -3.17092974210158, 112.51708426699042 -2.8253481052815914 M1.8333442378789186 1.3597066532820463 C35.51874769767746 -2.115790551286191, 74.1104183236137 -1.3831764513067903, 108.88786418922246 -0.9077220428735018 M105.7256194613874 -1.6229793690145016 C110.49075586861 13.613736094255003, 111.64349551266059 33.8243628429249, 112.14001515135169 64.6713708974421 M107.30345590598881 -1.8799620140343904 C110.00160426573828 14.952873404975982, 109.86019671635702 26.404557624645534, 107.5212620664388 60.84120906703175 M111.67951348051429 59.795217905193574 C85.69783454267308 65.2531123274006, 54.95348699521272 65.86710966760293, -1.2495699860155582 63.00720504298807 M107.80433120019734 60.87136472575367 C70.05630989605561 62.904191922377805, 35.770830172114074 61.11592055482791, 0.30438108928501606 61.77956087701023 M-1.7218819595873356 64.0359287597239 C3.2328416540659966 50.90245234994218, 3.714659972433001 31.99606105368585, 3.9063122533261776 1.598780307918787 M1.7747518587857485 62.04697544686497 C-2.046094136852771 46.37183444509283, -2.08794190229848 29.98387720491737, -1.8845438789576292 -0.8175811637192965" stroke="#000000" stroke-width="2" fill="none"></path></g><g><g transform="translate(619.4999999999993 170) rotate(0 -148.0434720883543 0.9878457369673868)"><path d="M-1.5806690703124544 -2.950618568243235 C-79.88566887220904 2.299315217721375, -167.93026183155754 7.875079140836188, -297.0953253375993 3.202613021173333 M1.0083811608907138 -1.1866901176026703 C-64.63378070276882 4.353185275791285, -128.5037672474703 4.80117313587685, -295.67318182576327 1.5174066178091832" stroke="#000000" stroke-width="2" fill="none"></path></g><g transform="translate(619.4999999999993 170) rotate(0 -148.0434720883543 0.9878457369673868)"><path d="M-269.4607042777827 -12.291054728576063 C-271.78102023871 -8.272968851632049, -287.1798559812073 1.2403303431260229, -298.49852993104486 3.13901657010997 M-265.9696148350379 -9.912563991868018 C-273.6872235823357 -5.7737944700405475, -279.14349670950946 -3.6122288787705967, -296.58090386863677 0.8666750710048743" stroke="#000000" stroke-width="2" fill="none"></path></g><g transform="translate(619.4999999999993 170) rotate(0 -148.0434720883543 0.9878457369673868)"><path d="M-269.7734142146579 8.227771136497664 C-271.8637115368806 6.501379178724223, -287.17509094834156 10.276129591614435, -298.49852993104486 3.13901657010997 M-266.28232477191307 10.606261873205709 C-274.2678108491955 10.25900886471513, -279.65580370293117 7.940284975276008, -296.58090386863677 0.8666750710048743" stroke="#000000" stroke-width="2" fill="none"></path></g></g><g transform="translate(632.4999999999993 10) rotate(0 12 23)"><text x="0" y="32" font-family="Virgil, Segoe UI Emoji" font-size="36px" fill="#000000" text-anchor="start" style="white-space: pre;" direction="ltr">K</text></g><g><g transform="translate(619.4999999999993 50) rotate(0 -0.6806671940134947 59.38919592829254)"><path d="M-3.247082684189081 -3.92824849113822 C0.8058655580099252 26.568287496798142, -1.4327477524117636 55.496636057997605, 1.8857482961620917 122.7066403477233 M-0.12735591642558575 0.4025582205504179 C-2.528745711949091 42.89264373388789, -3.5791461509069227 88.14282627589084, 0.4748534756954541 117.40276160265915" stroke="#000000" stroke-width="2" fill="none"></path></g></g><g transform="translate(255.50000000000023 156.5) rotate(0 10.5 23)"><text x="10.5" y="32" font-family="Virgil, Segoe UI Emoji" font-size="36px" fill="#000000" text-anchor="middle" style="white-space: pre;" direction="ltr">F</text></g><g><g transform="translate(210.49999999999977 180) rotate(0 -25.647202708758414 -1.3094198470935225)"><path d="M3.517084266990423 -2.8253481052815914 C-19.362239904515448 -4.326619581319392, -38.69112233407796 2.606061383150518, -51.28058669343591 -3.2002788446843624 M-0.11213581077754498 -0.9077220428735018 C-15.959580672346057 0.754885648302734, -28.752015691995624 -1.4198088302090763, -54.81148968450725 0.5814391504973173" stroke="#000000" stroke-width="2" fill="none"></path></g><g transform="translate(210.49999999999977 180) rotate(0 -25.647202708758414 -1.3094198470935225)"><path d="M-26.351247451121836 -12.580197972776471 C-38.107192760177 -9.494180361468727, -46.14488240184332 1.4550772109679748, -52.09207637794316 -2.618839694187045 M-29.980467528889804 -10.662571910368381 C-37.6035427335216 -6.186625868126391, -42.15844422063119 -5.431011289333819, -55.6229793690145 1.1628783009946346" stroke="#000000" stroke-width="2" fill="none"></path></g><g transform="translate(210.49999999999977 180) rotate(0 -25.647202708758414 -1.3094198470935225)"><path d="M-25.54279935261664 5.871187167763882 C-37.31333349046792 1.7713055680414342, -45.66517782687612 5.550542854563527, -52.09207637794316 -2.618839694187045 M-29.17201943038461 7.7888132301719715 C-37.000788481522775 7.0370976119934685, -41.78488274577768 2.5617960560861297, -55.6229793690145 1.1628783009946346" stroke="#000000" stroke-width="2" fill="none"></path></g></g><g transform="translate(120.5 61) rotate(0 39 23)"><text x="0" y="32" font-family="Virgil, Segoe UI Emoji" font-size="36px" fill="#000000" text-anchor="start" style="white-space: pre;" direction="ltr">L(i-1)</text></g><g transform="translate(420.4999999999993 60) rotate(0 40 23)"><text x="0" y="32" font-family="Virgil, Segoe UI Emoji" font-size="36px" fill="#000000" text-anchor="start" style="white-space: pre;" direction="ltr">R(i-1)</text></g><g transform="translate(10 358.00000000000006) rotate(0 278.0000000000001 32.5)"><path d="M-1.3063969954848291 1.3106309518218042 C217.15414670147 -0.715464944332838, 430.09483108446005 -2.0672749705016615, 555.8981152668596 0.32204657644033435 M0.2150016836822033 0.746273023635149 C163.02774835266175 1.1226310862898825, 327.5978245809674 0.9069204224944112, 556.463123589009 0.23876505568623543 M558.1245367862284 1.5152080319821835 C553.8001073536464 20.842600592877716, 557.900436633546 52.43979524727911, 556.4244259931147 64.46711364015937 M555.7641212474555 1.8967359233647585 C557.2365426338278 14.091710668522865, 557.8785366929136 30.481038517318666, 556.2424105536193 66.39983375556767 M554.6353736534714 65.12162672132254 C405.61248776577406 66.8927204259336, 256.05538709536194 68.38640905699134, 1.561251272261143 64.96016331762075 M556.055291133374 65.15829909518361 C380.3938293259591 61.56638716518879, 206.13984356224537 61.491379321217536, 0.7597957901656628 64.30258708670735 M1.9602942802011967 66.36519959196448 C3.029900117497891 41.24619348207489, -3.416012362856418 16.75709688756615, -2.9801042936742306 3.385640051215887 M-0.7428249586373568 64.09642161615193 C-0.10073897382244468 52.304532192181796, 1.4477377817966044 37.45077028591186, -1.1818063128739595 1.027471261098981" stroke="#000000" stroke-width="2" fill="none"></path></g><g><g transform="translate(274.0000000000002 358.00000000000006) rotate(0 1.1921953356049926 34.46640865318477)"><path d="M3.27657737955451 3.6666884757578373 C3.278868740107864 12.625995673704892, -0.1006563253141941 31.397837203927338, 0.8051164411008358 68.77572837844491 M1.8656825590878725 -1.637190269306302 C-1.2604944518022239 18.149798102583738, -1.7997711112909018 36.29452687669546, 0.5969126392155886 70.57000757567585" stroke="#000000" stroke-width="2" fill="none"></path></g></g><g transform="translate(57.333333333333485 377.00000000000006) rotate(0 65 18)"><text x="0" y="25" font-family="Virgil, Segoe UI Emoji" font-size="28px" fill="#000000" text-anchor="start" style="white-space: pre;" direction="ltr">Li = R(i-1)</text></g><g transform="translate(277.77777777777715 376.88888888888897) rotate(0 146 18)"><text x="0" y="25" font-family="Virgil, Segoe UI Emoji" font-size="28px" fill="#000000" text-anchor="start" style="white-space: pre;" direction="ltr">Ri = L(i-1)+F(Ki, R(i-1))</text></g><g transform="translate(530.2499999999993 179.50000000000023) rotate(0 16 23)"><text x="0" y="32" font-family="Virgil, Segoe UI Emoji" font-size="36px" fill="#000000" text-anchor="start" style="white-space: pre;" direction="ltr">Ki</text></g></svg>